<?xml version="1.0" encoding="UTF-8"?>
<!DOCTYPE svg PUBLIC "-//W3C//DTD SVG 1.1//EN" "http://www.w3.org/Graphics/SVG/1.1/DTD/svg11.dtd">
<!-- Creator: CorelDRAW 2017 -->
<svg xmlns="http://www.w3.org/2000/svg" xml:space="preserve" width="0.299992in" height="0.299992in" version="1.1" style="shape-rendering:geometricPrecision; text-rendering:geometricPrecision; image-rendering:optimizeQuality; fill-rule:evenodd; clip-rule:evenodd"
viewBox="0 0 299.99 299.99"
 xmlns:xlink="http://www.w3.org/1999/xlink">
 <defs>
  <style type="text/css">
   <![CDATA[
    .fil7 {fill:none}
    .fil5 {fill:#DA5B38}
    .fil2 {fill:#7E3A89}
    .fil1 {fill:#4B3676}
    .fil3 {fill:#1F193D}
    .fil0 {fill:#2C5D6B}
    .fil6 {fill:#BF314B}
    .fil4 {fill:#F8F8EF}
   ]]>
  </style>
   <clipPath id="id0">
    <path d="M150 -0c82.84,0 150,67.16 150,150 0,82.84 -67.16,150 -150,150 -82.84,0 -150,-67.16 -150,-150 0,-82.84 67.16,-150 150,-150z"/>
   </clipPath>
 </defs>
 <g id="Layer_x0020_1">
  <metadata id="CorelCorpID_0Corel-Layer"/>
  <path class="fil0" d="M150 -0c82.84,0 150,67.16 150,150 0,82.84 -67.16,150 -150,150 -82.84,0 -150,-67.16 -150,-150 0,-82.84 67.16,-150 150,-150z"/>
  <g style="clip-path:url(#id0)">
   <g id="_2490709644624">
    <path id="1" class="fil1" d="M32.81 112.16l0.02 54.84 0.2 0.49c0.48,1.46 0.22,1.52 1.15,3.5 0.63,1.36 1.23,2.15 2.06,3.17 1.3,1.61 3.46,3.37 6.18,4.29 4.14,1.41 15.31,0.82 20.41,0.82 41.04,0 82.56,-0.22 123.57,0 2.69,0.02 2.09,0.25 2.34,-0.48 0.3,-1.83 -1.32,-6.35 0.46,-7.08 0.97,-0.4 2.14,0.57 2.7,0.96 0.89,0.62 1.6,1.13 2.48,1.8 -0.11,-1.83 -0.34,-3.73 -0.52,-5.57 -0.19,-2.03 -0.72,-3.54 0.3,-5.24 1.94,-0.25 4.29,1.94 6.35,3.42 1.93,1.39 3.81,2.69 5.75,4.11 1.92,1.4 3.78,2.66 5.75,4.11 0.98,0.72 1.81,1.26 2.82,2.01 0.89,0.66 2.09,1.62 3.02,2.07 0.84,-0.33 27.49,-0.11 30.93,-0.11 5.96,0 8.51,0.14 12.73,-2.87 3.33,-2.38 4.75,-5.39 5.49,-9.13l0.28 -0.93 0 -54.19c0.15,-4.99 -0.96,-7.3 -3.63,-10.64 -1.5,-1.88 -4.02,-3.41 -6.3,-4.16 -2.26,-0.75 -4.62,-0.7 -7.56,-0.7 -66.41,0 -132.83,0 -199.24,0 -6.17,0 -8.21,0.01 -12.89,3.62 -1.33,1.02 -2.78,3.02 -3.56,4.7 -1.24,2.67 -1.1,3.61 -1.3,7.18z"/>
    <path class="fil2" d="M188.73 178.8c-0.25,0.73 0.35,0.5 -2.34,0.48 -41.01,-0.22 -82.53,0 -123.57,0 -5.1,0 -16.27,0.59 -20.41,-0.82 -2.72,-0.93 -4.87,-2.68 -6.18,-4.29 -0.83,-1.02 -1.43,-1.81 -2.06,-3.17 -0.93,-1.99 -0.67,-2.04 -1.15,-3.5l-0.2 -0.49c-0.11,3.8 -0.01,7.76 -0.01,11.57 0,4.24 0.11,6.37 2,9.7 1.24,2.18 3.48,4.33 5.91,5.56 3.3,1.67 6.23,1.52 10.22,1.52l139.51 0 -1.47 -15.58c-0.08,-0.73 0.06,-0.5 -0.25,-0.97z"/>
    <path class="fil3" d="M192.69 220.03c0.37,0.88 0.4,2.32 0.5,3.44 0.16,1.67 0.04,1.81 0.98,2.99 0.85,0.09 1.3,-0.11 1.88,-0.37l7.7 -7.81c0.71,-0.71 1.82,-2.21 2.77,-2.46l11.36 19.84c2.17,3.57 3.74,8.62 8.11,6.67l4.96 -2.89c3.04,-1.62 2.48,-3.37 2.34,-5.14l-0.54 -0.87c-1.67,0.56 -2.5,1.89 -4.89,0.89 -1.56,-0.65 -1.98,-1.78 -2.87,-3.36l-11.2 -19.39c-0.71,-1.26 -1.5,-2.8 -2.32,-3.9 -0.76,1.01 -1.82,1.72 -2.77,2.69 -1.02,1.02 -1.87,1.93 -2.88,2.96 -1.45,1.49 -4.85,5.71 -6.35,5.1 -1.27,-0.93 -1.09,-2.8 -1.28,-4.71l-2.72 -28.09c-0.34,-3.57 -0.56,-7.64 -1.1,-11.13 -0.88,-0.67 -1.59,-1.18 -2.48,-1.8 -0.56,-0.39 -1.73,-1.35 -2.7,-0.96 -1.78,0.73 -0.16,5.25 -0.46,7.08 0.31,0.47 0.17,0.24 0.25,0.97l1.47 15.58 -139.51 0c-4,0 -6.92,0.15 -10.22,-1.52 -2.43,-1.23 -4.68,-3.38 -5.91,-5.56 -1.89,-3.33 -2,-5.45 -2,-9.7 0,-3.81 -0.1,-7.77 0.01,-11.57l-0.02 -54.84c-1.19,0.87 -2.87,3.07 -3.59,4.43 -4.01,7.48 -3.02,12.25 -3.02,21.54 0,10.87 0,21.73 0,32.6 0,8.04 -0.74,14.91 3.18,21.17 0.91,1.44 2.46,3.46 3.72,4.53 7.91,6.65 13.57,5.49 27.31,5.49 43.54,0 87.08,0 130.61,0 0.33,1.39 0.26,2.93 0.49,4.54 0.22,1.54 0.28,3.22 0.46,4.57 0.16,1.21 0.88,8.63 0.72,9z"/>
    <path class="fil4" d="M194.37 174.47c0.54,3.5 0.76,7.56 1.1,11.13l2.72 28.09c0.19,1.92 0.01,3.78 1.28,4.71 1.5,0.61 4.9,-3.61 6.35,-5.1 1.01,-1.03 1.86,-1.94 2.88,-2.96 0.95,-0.96 2,-1.68 2.77,-2.69 0.82,1.09 1.61,2.64 2.32,3.9l11.2 19.39c0.89,1.58 1.31,2.71 2.87,3.36 2.38,1 3.21,-0.33 4.89,-0.89l0.54 0.87c0.47,-0.08 0.57,-0.11 0.88,-0.49 0.89,-1.09 -0.37,-1.08 0.98,-1.83 1.59,-0.88 3,-1.41 3.44,-3.62 0.42,-2.12 -2.04,-5.29 -3.35,-7.64l-8.19 -14.32 -3.37 -5.81 12 -3.12c1.55,-0.39 2.82,-0.44 3.29,-1.79 -0.06,-1.45 -1.17,-1.98 -2.18,-2.67l-13.62 -9.73c-1.01,-0.74 -4.78,-3.2 -5.31,-3.88 -0.93,-0.45 -2.13,-1.41 -3.02,-2.07 -1.01,-0.75 -1.83,-1.29 -2.82,-2.01 -1.97,-1.45 -3.83,-2.71 -5.75,-4.11 -1.94,-1.42 -3.82,-2.72 -5.75,-4.11 -2.06,-1.48 -4.4,-3.67 -6.35,-3.42 -1.02,1.7 -0.49,3.2 -0.3,5.24 0.18,1.83 0.41,3.74 0.52,5.57z"/>
    <path class="fil3" d="M267.28 166.34c0.06,4.78 0.04,9.67 -0,14.45 -0.04,4.69 -1.87,7.95 -4.18,10.28 -2.22,2.24 -5.52,4.2 -10.09,4.27l-10.87 0c-0.91,0 -2.65,-0.29 -3.18,0.31 -0.47,1.35 -1.74,1.4 -3.29,1.79l-12 3.12 3.37 5.81c1.52,-0.23 3.42,-0.85 4.83,-1.24 2.3,-0.62 2.41,-1.42 1.2,-3.22 5.37,0 20.29,0.46 24.88,-0.68 3.94,-0.98 6.73,-2.8 9.59,-5.3 1.17,-1.03 3.7,-4.72 4.44,-6.43 2.45,-5.7 1.75,-9.11 1.75,-15.35 0,-11.41 0,-22.81 0,-34.21 0,-8.77 1.48,-18.7 -4.29,-25.5 -0.68,-0.8 -1.33,-1.74 -2.17,-2.28l0 54.19z"/>
    <path class="fil4" d="M108.32 120.3c-0.67,1.5 -0.29,19.64 -0.29,22.85 0,2.08 -0.26,9.97 0.13,11.41 0.76,2.82 6.14,3.23 6.2,-1.33 0.04,-2.67 -0.73,-9.04 0.87,-10.59 1.74,-1.69 7.91,-0.52 10.75,-0.92 5.69,-0.8 10.11,-6.79 9.1,-13.6 -0.63,-4.98 -4.4,-9.06 -9.47,-9.48 -2.88,-0.24 -6.49,-0.06 -9.45,-0.06 -3.3,0 -6.9,-0.66 -7.83,1.73z"/>
    <path class="fil4" d="M143.49 120.37c-0.42,1.6 -0.19,19.59 -0.19,22.78 0,2.14 -0.28,9.87 0.11,11.39 0.69,2.73 6.15,3.38 6.2,-1.32 0.03,-2.69 -0.73,-8.94 0.85,-10.58 1.52,-1.57 8.05,-0.55 10.76,-0.94 5.86,-0.83 10,-6.73 9.11,-13.71 -1.01,-5.14 -4.19,-9 -9.7,-9.39 -2.95,-0.2 -6.46,-0.04 -9.46,-0.04 -4.39,0 -6.28,-0.69 -7.68,1.8z"/>
    <path class="fil2" d="M217.85 179.38c0.53,0.67 4.3,3.14 5.31,3.88l13.62 9.73c1.01,0.69 2.12,1.22 2.18,2.67 0.53,-0.6 2.26,-0.31 3.18,-0.31l10.87 0c4.57,-0.07 7.87,-2.03 10.09,-4.27 2.31,-2.33 4.15,-5.6 4.18,-10.28 0.04,-4.78 0.07,-9.67 0,-14.45l-0.28 0.93c-0.74,3.75 -2.16,6.76 -5.49,9.13 -4.22,3.01 -6.78,2.87 -12.73,2.87 -3.44,0 -30.09,-0.22 -30.93,0.11z"/>
    <path class="fil4" d="M68.46 152.8c-0.44,2.07 0.57,3.68 2.63,3.81 2.47,0.15 3.11,-1.04 3.75,-3.04 1.98,-6.15 1.73,-5.18 8.71,-5.18 7.63,0 6.95,-0.62 8.7,4.98 0.67,2.13 1.02,3.27 3.57,3.25 2.3,-0.02 3.33,-1.52 3.06,-3.76 -1.36,-2.97 -9.26,-26.48 -11.26,-32.1 -0.64,-1.79 -1.7,-2.2 -3.88,-2.2 -2.28,-0 -3.43,0.29 -4.09,2.19l-11.21 32.05z"/>
    <path class="fil4" d="M206.89 120.51c-0.36,2.26 2.33,6.48 3.38,8.62l6.08 12.24c0.56,1.35 0.16,10.05 0.26,12.26 0.17,4.05 6.06,4 6.31,0.16 0.17,-2.5 -0.25,-10.74 0.16,-12.17l6.09 -12.44c0.7,-1.44 1.32,-2.8 2.07,-4.17 0.69,-1.27 1.8,-2.9 1.24,-4.54 -1.1,-2.78 -4.24,-2.02 -5.14,-0.97 -1.24,1.45 -6.75,15.26 -7.54,16.01 -0.73,-0.5 -4.64,-9.98 -5.06,-10.84 -0.66,-1.35 -1.97,-4.61 -2.72,-5.33 -0.95,-0.91 -3.56,-1.66 -5.13,1.18z"/>
    <path class="fil4" d="M178.95 120.45c-0.38,1.27 -0.28,29.51 -0.2,32.98 0.08,3.13 2.11,3.18 5.02,3.18l16.5 0c1.5,0.01 2.43,0.17 3.43,-0.76 0.81,-0.75 1.11,-1.69 0.78,-3 -0.66,-1.7 -1.56,-1.96 -3.8,-1.96 -1.95,0.01 -3.9,0 -5.85,0 -4.17,0 -9.36,0.83 -9.57,-2.24 -0.53,-0.59 -0.22,-12.32 -0.22,-14.16 0,-2.42 0.32,-12.81 -0.27,-14.25 -1.22,-2.36 -4.83,-2.34 -5.84,0.2z"/>
    <path class="fil4" d="M165.86 216c0,0.97 0.45,1.98 0.69,2.94l2.33 8.74c0.96,3.93 2.13,7.72 3.14,11.76l4.69 17.45c1.06,3.55 0.59,4.8 3.24,4.8 0.59,0 1.41,-1 1.41,-1.61 0,-1.44 -10.68,-40.48 -11.51,-43.63 -0.93,-3.53 -3.99,-1.98 -3.99,-0.44z"/>
    <path class="fil4" d="M165.86 83.78c0,1.98 3.02,3.01 3.91,0.08 1.61,-5.35 3.51,-13.31 4.99,-18.76 0.28,-1.04 6.6,-23.81 6.6,-25 0,-1.78 -3.02,-3.06 -3.83,-0.01l-2.34 8.73c-2.41,8.23 -4.61,17.89 -6.98,26.02 -0.31,1.07 -0.55,1.93 -0.82,3.01l-1.53 5.92z"/>
    <path class="fil4" d="M118.77 39.71c0,1.73 4.07,16.31 4.7,18.44l1.62 6.03c1.05,4.16 2.19,7.94 3.22,12.08 0.24,0.96 2.09,8.39 2.59,8.89 0.92,0.93 4.04,1.04 3.06,-2.65l-7.29 -27.13c-0.51,-2.07 -1.13,-4.08 -1.61,-6.04l-2.41 -9.06c-0.87,-3.36 -3.87,-1.76 -3.87,-0.56z"/>
    <path class="fil4" d="M118.77 260.08c0,1.62 3.03,2.87 3.87,-0.35l7.44 -27.78c0.52,-2.03 1.11,-4.07 1.65,-6.2l2.46 -9.22c0.21,-1.43 -0.72,-2.13 -2.15,-2.13 -1.2,0 -1.48,0.85 -1.73,1.89 -0.26,1.06 -0.46,1.79 -0.77,2.86l-3.11 11.58c-1.86,6.26 -3.56,14.02 -5.43,20.33l-1.59 5.85c-0.26,0.93 -0.65,2.15 -0.65,3.18z"/>
    <path class="fil4" d="M148.15 20.79l0 32.41c0,2.42 3.82,2.41 3.82,-0.2l0 -31.8c0,-3.2 -3.82,-2.61 -3.82,-0.41z"/>
    <path class="fil4" d="M148.15 246.59l0 32.61c0,2.21 3.82,2.8 3.82,-0.41l0 -31.8c0,-1.57 -1.72,-2.68 -3.14,-1.53 -0.24,0.19 -0.69,0.79 -0.69,1.13z"/>
    <path class="fil4" d="M198.67 62.45c0,1.5 2.22,3.17 3.72,0.7l10.1 -17.47c0.63,-1.16 4.09,-6.73 4.09,-7.58 0,-0.85 -0.74,-1.81 -2.01,-1.81 -1.7,0 -3.18,3.74 -4.52,5.95 -0.91,1.51 -11.38,19.3 -11.38,20.21z"/>
    <path class="fil4" d="M83.55 261.69c0,2.11 2.5,2.8 3.62,1l6.71 -11.6c0.58,-1.07 7.57,-12.75 7.57,-13.56 0,-1.5 -1.85,-2.53 -3.13,-1.53 -0.47,0.37 -9.61,16.31 -10.62,18.16 -0.57,1.04 -4.16,6.92 -4.16,7.52z"/>
    <path class="fil4" d="M83.55 38.3c0,0.61 1.57,3.02 1.94,3.69l6.31 10.99c0.69,1.18 1.38,2.3 2.07,3.56l4.33 7.34c1.28,1.2 3.24,0.11 3.24,-1.43 0,-0.63 -1.38,-2.83 -1.75,-3.48l-11.49 -19.9c-0.36,-0.6 -0.6,-1.02 -0.98,-1.64 -1.22,-2.04 -3.69,-1.17 -3.69,0.88z"/>
    <path class="fil4" d="M198.67 237.54c0,0.81 3.06,5.8 3.66,6.8l10.5 18.27c1.5,2.27 3.74,0.56 3.74,-0.52 0,-1.3 -7.47,-13.56 -8.24,-14.9l-5.3 -9.19c-0.37,-0.65 -0.69,-1.36 -1.19,-1.84 -1.19,-1.16 -3.18,-0.26 -3.18,1.37z"/>
    <path class="fil5" d="M149.69 133.76l-0 -2.51c1.2,1.02 0.9,1.63 3.29,1.68 2.64,0.05 7.15,0.37 9.04,-1.07 0.72,-0.55 1.27,-1.16 1.67,-1.94l0.56 -0.89c-1.02,-4.87 -4.49,-4.74 -9.65,-4.74 -2.37,-0 -4.45,-0.02 -4.92,2.28 -0.19,0.94 -0.19,6.43 0.02,7.21z"/>
    <path class="fil5" d="M114.35 130.94c1.84,2.64 2.52,2.02 8.04,1.99 1.7,-0.01 2.85,-0.11 4.15,-0.92 0.95,-0.6 1.77,-1.56 2.19,-2.89l0.28 0.1c-0.76,-4.26 -3.43,-4.95 -8.03,-4.94 -6.69,0 -6.63,-0.04 -6.63,6.66z"/>
    <path class="fil4" d="M85.76 83.78c0,-1.09 -1.22,-1.93 -1.86,-2.57l-13.78 -13.79c-0.65,-0.65 -1.56,-1.96 -2.67,-1.96 -1.48,0 -2.43,1.59 -1.58,2.98 0.59,0.97 12.21,12.37 13.91,14.07 1.54,1.54 3.16,3.87 4.89,3 0.66,-0.33 1.09,-0.86 1.09,-1.74z"/>
    <path class="fil4" d="M67.45 234.52c1.15,0 3.69,-2.98 4.88,-4.17l9.16 -9.16c0.93,-0.93 4.28,-3.8 4.28,-4.98 0,-1.56 -1.66,-2.33 -2.98,-1.58 -0.81,0.46 -7.56,7.39 -8.54,8.38 -1.03,1.03 -7.74,7.57 -8.3,8.41 -0.97,1.46 -0.04,3.11 1.5,3.11z"/>
    <path class="fil6" d="M68.46 152.8l11.21 -32.05c0.66,-1.9 1.81,-2.19 4.09,-2.19 2.17,0 3.24,0.41 3.88,2.2 2,5.62 9.9,29.13 11.26,32.1 0.83,-2.15 -1.8,-8.13 -2.51,-10.26 -1.12,-3.33 -2.28,-6.61 -3.43,-9.85l-5.17 -14.76c-0.73,-2.15 -1.49,-2.62 -4.03,-2.62 -4.18,-0 -3.78,1.39 -5.9,7.39 -1.18,3.35 -2.27,6.48 -3.45,9.83 -1.16,3.31 -2.26,6.56 -3.43,9.85 -0.74,2.09 -3.46,8.36 -2.52,10.35z"/>
    <path class="fil4" d="M214.37 83.78c0,1.84 1.78,2.26 2.72,1.73l7.59 -7.52c0.66,-0.66 9.81,-9.42 9.81,-10.11 0,-1.14 -0.27,-2.41 -1.81,-2.41 -1.15,0 -3.69,2.98 -4.88,4.17l-9.16 9.16c-0.93,0.93 -4.28,3.8 -4.28,4.98z"/>
    <path class="fil4" d="M148.15 216.2l0 21.33c0,2.46 3.82,2.46 3.82,0l0 -21.33c0,-2.48 -3.82,-2.55 -3.82,0z"/>
    <path class="fil4" d="M148.15 62.45l0 21.33c0,2.59 3.82,2.46 3.82,0l0 -21.33c0,-2.35 -3.82,-2.52 -3.82,0z"/>
    <path class="fil6" d="M108.32 120.3c0.93,-2.39 4.54,-1.73 7.83,-1.73 2.96,0 6.57,-0.19 9.45,0.06 5.07,0.43 8.84,4.51 9.47,9.48 1.1,-2.35 -1.14,-7.23 -2.23,-8.69 -4.11,-5.47 -11.04,-4.04 -18.5,-4.04 -3.03,0 -6.4,-0.73 -6.33,3.63 0.01,0.79 -0.02,0.84 0.31,1.29z"/>
    <path class="fil6" d="M143.49 120.37c1.4,-2.49 3.29,-1.8 7.68,-1.8 3.01,0 6.52,-0.17 9.46,0.04 5.5,0.39 8.69,4.25 9.7,9.39 1.03,-1.96 -0.99,-11.94 -9.53,-12.58 -3.42,-0.26 -7.72,-0.04 -11.24,-0.04 -1.57,0 -3.91,-0.32 -5.12,0.52 -0.92,0.64 -1.71,3.22 -0.95,4.47z"/>
    <path class="fil6" d="M206.89 120.51c1.57,-2.83 4.18,-2.09 5.13,-1.18 0.75,0.72 2.06,3.98 2.72,5.33 0.42,0.86 4.33,10.34 5.06,10.84 0.78,-0.75 6.3,-14.56 7.54,-16.01 0.9,-1.05 4.04,-1.81 5.14,0.97 0.03,-0.05 0.05,-0.18 0.06,-0.15 0.01,0.03 0.05,-0.12 0.06,-0.16 0.46,-2.09 -0.1,-5 -3.33,-4.77 -2.43,0.18 -2.97,2.91 -3.93,4.93 -0.76,1.59 -5.03,11.5 -5.54,11.98 -0.73,-0.5 -2.5,-5.19 -2.87,-6 -0.95,-2.12 -1.86,-4.02 -2.79,-6.06 -0.94,-2.06 -1.57,-4.7 -4.01,-4.85 -4.12,-0.26 -3.5,4.54 -3.24,5.13z"/>
    <path class="fil4" d="M103.07 71.7c0,1.43 3.9,7.54 4.67,8.82 1.53,2.55 2.43,5.61 4.47,5.17 3.24,-0.7 0.27,-4.52 -0.35,-5.66l-4.15 -7.12c-0.59,-1.03 -1.35,-3.01 -2.83,-3.01 -0.83,0 -1.81,0.81 -1.81,1.81z"/>
    <path class="fil4" d="M103.07 228.08c0,1.28 0.78,2.02 2.02,2.02 1.43,0 4,-5.3 4.7,-6.57 2.03,-3.73 5.91,-8.06 2.58,-9.17 -1.97,-0.66 -3.25,2.84 -4.62,5.12l-2.44 4.2c-0.43,0.76 -2.22,3.64 -2.22,4.42z"/>
    <path class="fil4" d="M186.39 83.78c0,2.09 2.38,2.66 3.54,0.92l4.87 -8.41c1.31,-2.17 3,-4.28 1.77,-5.72 -0.95,-1.11 -2.35,-0.66 -3,0.26 -0.38,0.53 -0.71,1.17 -1.06,1.76 -0.77,1.31 -1.38,2.46 -2.11,3.73 -0.67,1.18 -1.37,2.28 -2.07,3.56 -0.44,0.81 -1.94,3.04 -1.94,3.89z"/>
    <path class="fil6" d="M185.28 148.65c0.21,3.07 5.4,2.24 9.57,2.24 1.95,0 3.9,0 5.85,-0 2.24,-0.01 3.14,0.25 3.8,1.96 0.76,-1.69 -0.05,-4.22 -1.41,-4.84 -1.69,-0.78 -14.28,0.09 -16.04,-0.46 -1.2,-0.37 -1.19,-0.76 -1.81,-1.6l0.06 2.7z"/>
    <path class="fil4" d="M196.05 226.08c-0.58,0.26 -1.03,0.46 -1.88,0.37 -0.94,-1.18 -0.82,-1.31 -0.98,-2.99 -0.11,-1.11 -0.13,-2.56 -0.5,-3.44 -1.68,-2.38 -2.7,-6.34 -4.92,-5.69 -3.1,0.91 -0.13,4.52 1.23,6.91 0.68,1.19 1.28,2.27 1.99,3.45 0.69,1.13 1.34,2.27 1.98,3.45 0.59,1.09 1.45,2.65 3.17,1.63 1.6,-0.95 0.91,-2.62 -0.08,-3.7z"/>
    <path class="fil5" d="M79.71 138.5c0.7,0.37 0.65,0.76 1.61,1.06 0.72,0.22 3.98,0.25 4.79,-0.08 1.46,-0.61 0.65,-1.09 1.44,-0.72l-2.89 -9.39c-0.24,-0.76 -0.67,-2.62 -1.1,-3.12l-3.84 12.25z"/>
    <path class="fil6" d="M114.35 130.94c0.02,2.29 -0.2,4.11 1.65,4.92 1.03,0.45 4.98,0.26 6.39,0.26 4.58,0 6.89,-2.18 6.62,-6.89l-0.28 -0.1c-0.42,1.33 -1.24,2.29 -2.19,2.89 -1.29,0.81 -2.44,0.91 -4.15,0.92 -5.52,0.03 -6.2,0.65 -8.04,-1.99z"/>
    <path class="fil6" d="M149.69 133.76c0.33,1.77 1.52,2.35 3.48,2.35 1.82,0 4.28,0.13 6.03,-0.05 3.91,-0.4 5.33,-3.39 5.03,-7.05l-0.56 0.89c-0.4,0.78 -0.95,1.4 -1.67,1.94 -1.89,1.44 -6.4,1.12 -9.04,1.07 -2.39,-0.04 -2.09,-0.66 -3.29,-1.68l0 2.51z"/>
    <path class="fil6" d="M87.54 138.75c-0.79,-0.37 0.03,0.11 -1.44,0.72 -0.8,0.33 -4.07,0.31 -4.79,0.08 -0.95,-0.3 -0.9,-0.68 -1.61,-1.06 -0.86,3.18 0.42,4.41 3.63,4.4 3.04,-0 5.24,-0.69 4.2,-4.15z"/>
    <path class="fil6" d="M178.95 120.45c1.01,-2.54 4.61,-2.56 5.84,-0.2l0.16 -0.31c1.56,-5.12 -5.94,-6.49 -6.19,-1.55l0.19 2.06z"/>
   </g>
  </g>
  <path class="fil7" d="M150 -0c82.84,0 150,67.16 150,150 0,82.84 -67.16,150 -150,150 -82.84,0 -150,-67.16 -150,-150 0,-82.84 67.16,-150 150,-150z"/>
 </g>
</svg>
