<?xml version="1.0" encoding="UTF-8"?>
<!DOCTYPE svg PUBLIC "-//W3C//DTD SVG 1.1//EN" "http://www.w3.org/Graphics/SVG/1.1/DTD/svg11.dtd">
<!-- Creator: CorelDRAW 2017 -->
<svg xmlns="http://www.w3.org/2000/svg" xml:space="preserve" width="0.299992in" height="0.299992in" version="1.1" style="shape-rendering:geometricPrecision; text-rendering:geometricPrecision; image-rendering:optimizeQuality; fill-rule:evenodd; clip-rule:evenodd"
viewBox="0 0 299.99 299.99"
 xmlns:xlink="http://www.w3.org/1999/xlink">
 <defs>
  <style type="text/css">
   <![CDATA[
    .fil24 {fill:none}
    .fil0 {fill:#4B3676}
    .fil4 {fill:#00695B}
    .fil21 {fill:#0277BC}
    .fil1 {fill:#263439}
    .fil7 {fill:#283592}
    .fil11 {fill:#2F7D31}
    .fil8 {fill:#691B99}
    .fil13 {fill:#9AC1B4}
    .fil6 {fill:#9E9E24}
    .fil17 {fill:#ABD3E6}
    .fil9 {fill:#AD1457}
    .fil18 {fill:#AFB2CF}
    .fil10 {fill:#C62827}
    .fil15 {fill:#D2D2E4}
    .fil23 {fill:#D7E8EE}
    .fil22 {fill:#DAD9AA}
    .fil19 {fill:#E3B6CC}
    .fil3 {fill:#EE6C01}
    .fil16 {fill:#EECED1}
    .fil12 {fill:#F8F5F6}
    .fil20 {fill:#F9D9A8}
    .fil14 {fill:#FAE8C9}
    .fil2 {fill:#FE8E02}
    .fil5 {fill:#FF4C3E}
    .fil25 {fill:#FEFEFE;fill-opacity:0.501961}
   ]]>
  </style>
   <clipPath id="id0">
    <path d="M150 -0c82.84,0 150,67.16 150,150 0,82.84 -67.16,150 -150,150 -82.84,0 -150,-67.16 -150,-150 0,-82.84 67.16,-150 150,-150z"/>
   </clipPath>
 </defs>
 <g id="Layer_x0020_1">
  <metadata id="CorelCorpID_0Corel-Layer"/>
  <path class="fil0" d="M150 -0c82.84,0 150,67.16 150,150 0,82.84 -67.16,150 -150,150 -82.84,0 -150,-67.16 -150,-150 0,-82.84 67.16,-150 150,-150z"/>
  <g style="clip-path:url(#id0)">
   <g id="_2490709777952">
    <path id="1" class="fil1" d="M96.04 149.98c0,1.95 0.2,4.48 0.42,6.22 0.86,6.86 2.44,12.13 5.43,18.17l2.47 4.32c2.33,3.48 2.7,3.74 5.04,6.76 1.22,1.57 2.76,2.85 4.16,4.26l1.78 1.61c3.33,2.7 5.43,4.11 9.07,6.13 2.57,1.43 5.36,2.67 8.19,3.61 9.83,3.26 19.31,3.78 29.46,1.54 3.55,-0.78 7.18,-2.04 10.15,-3.43 0.83,-0.39 1.41,-0.63 2.21,-1.03 2.1,-1.04 4.42,-2.55 6.35,-3.83 1.2,-0.8 4.46,-3.31 5.65,-4.52 0.3,-0.3 0.51,-0.53 0.81,-0.81l1.7 -1.69c0.74,-0.84 1.42,-1.37 2.42,-2.6 2.65,-3.26 3.5,-4.61 5.56,-8.02l1.21 -2.19c0.38,-0.76 0.68,-1.52 1.08,-2.31 2.17,-4.29 3.82,-10.91 4.39,-15.82 1.26,-10.87 -0.61,-21.04 -5.42,-30.75l-2.47 -4.32c-3.12,-4.66 -3.35,-4.88 -6.69,-8.5 -0.35,-0.38 -0.43,-0.59 -0.8,-0.97 -0.36,-0.35 -0.53,-0.41 -0.89,-0.73 -0.84,-0.74 -1.37,-1.42 -2.6,-2.42 -1.23,-1 -2.55,-2.06 -3.86,-2.93 -0.69,-0.45 -1.33,-0.88 -2.04,-1.36l-4.31 -2.48c-13.29,-6.59 -27.72,-7.7 -41.81,-3.01 -3.41,1.14 -8.29,3.35 -11.39,5.43l-5.89 4.28c-0.38,0.3 -0.48,0.46 -0.86,0.76l-2.71 2.45c-0.35,0.36 -0.41,0.53 -0.73,0.89 -0.74,0.84 -1.42,1.37 -2.42,2.6 -2.01,2.48 -2.61,3.41 -4.29,5.89l-2.48 4.31c-3.72,7.49 -5.9,15.93 -5.9,24.49z"/>
    <path class="fil2" d="M66.54 146c4.46,0 7.22,-0.29 11.26,-2.31 7.69,-3.85 12.79,-11.73 12.79,-20.41 0,-1.68 -0.31,-3.57 -0.6,-5 -0.31,-1.52 -0.84,-2.99 -1.42,-4.33 -2.24,-5.19 -6.32,-8.93 -11.3,-11.42 -8.47,-4.24 -19.26,-1.76 -25.44,4.41 -1.01,1.02 -1.76,1.79 -2.6,3 -2.11,3.06 -3.51,6.18 -4.05,9.97 -0.13,0.92 -0.08,1.8 -0.22,2.74 -0.52,3.69 1.46,9.71 3.64,12.96 1.14,1.7 2.35,3.33 3.95,4.61 1.86,1.5 2.31,2.07 4.99,3.41 2.09,1.05 5.89,2.36 9,2.36z"/>
    <path class="fil3" d="M76.43 79.03c0,4.92 0.63,8.25 3.1,12.54 1,1.74 2.31,3.28 3.72,4.69 5.46,5.46 13.67,7.8 21.41,5.85 0.87,-0.22 1.43,-0.36 2.15,-0.65 2.26,-0.9 3.33,-1.31 5.52,-2.89 0.58,-0.42 1.07,-0.74 1.59,-1.21l1.48 -1.32c0.31,-0.31 0.34,-0.36 0.61,-0.72 2.12,-2.73 2,-2.07 3.92,-5.96 2.7,-5.48 2.67,-13.07 0.09,-18.54 -1.16,-2.47 -2.61,-4.86 -4.56,-6.8 -4.01,-3.98 -9.27,-6.82 -16.78,-6.82 -5.76,0 -11.52,2.59 -15.45,6.53 -1.65,1.65 -1.12,1.02 -2.55,2.91 -2.43,3.24 -4.28,8.15 -4.28,12.39z"/>
    <path class="fil4" d="M127.32 235.11c0,4.41 0.16,7.29 2.16,11.26 0.73,1.44 2.08,3.75 3.19,4.93 2.13,2.27 3.1,3.24 5.96,4.95 4.96,2.97 11.18,3.75 16.83,2.43 3.31,-0.78 7.29,-2.78 9.73,-5.17 0.72,-0.7 0.56,-0.25 1.43,-1.37 0.53,-0.69 0.85,-0.86 1.88,-2.25 2.27,-3.08 4.26,-7.87 4.26,-12.12 0,-4.54 -0.19,-7.17 -2.26,-11.31 -7.61,-15.21 -28.43,-17.25 -38.73,-3.57 -2.33,3.09 -4.44,8 -4.44,12.22z"/>
    <path class="fil5" d="M178.07 219.91c0,4.3 1.06,7.05 2.38,10.16 0.76,1.8 3.25,5.17 4.81,6.55 1.81,1.6 3.75,3.01 5.98,4.05 5.62,2.61 13.38,2.96 19.03,0.1 4.11,-2.08 6.39,-3.82 9.1,-7.43 2.43,-3.24 4.28,-8.15 4.28,-12.39 0,-2.78 0.04,-3.89 -0.67,-6.7 -0.41,-1.64 -0.93,-2.74 -1.54,-4.07 -1.19,-2.63 -2.64,-4.48 -4.69,-6.53 -7.14,-7.15 -18,-8.44 -27.13,-3.45 -1.63,0.89 -4.29,2.9 -5.49,4.4l-1.92 2.36c-1.68,2.28 -2.78,5.01 -3.5,7.85 -0.33,1.33 -0.65,3.55 -0.65,5.11z"/>
    <path class="fil6" d="M45 175.65c0,4.72 0.31,6.75 2.28,11.15 0.19,0.43 0.26,0.43 0.48,0.85 0.19,0.35 0.26,0.54 0.46,0.87 1.8,2.87 3.96,5.2 6.79,7.08 8.06,5.36 17.69,5.23 25.73,-0.15 3.05,-2.04 6.35,-5.89 7.77,-9.34 2.07,-5.08 2.6,-8.85 1.48,-14.28 -0.29,-1.42 -0.79,-3.01 -1.37,-4.24 -1.32,-2.84 -1.9,-3.67 -3.74,-5.85 -3.61,-4.27 -10.14,-7.78 -15.98,-7.78 -4.28,0 -7.11,0.31 -10.97,2.16 -1.82,0.88 -4.91,2.95 -6.33,4.44 -3.71,3.87 -6.6,9.48 -6.6,15.09z"/>
    <path class="fil7" d="M209.49 176.69c0,1.63 0.31,3.61 0.6,5 0.33,1.62 0.89,2.96 1.44,4.31 1.06,2.57 2.72,4.81 4.63,6.73 2.11,2.11 3.86,3.41 6.65,4.71 7.23,3.37 15.63,2.59 22.08,-1.72 2.24,-1.5 4.09,-3.15 5.71,-5.35 0.42,-0.57 0.74,-1.06 1.13,-1.67 1.7,-2.57 3.33,-7.35 3.33,-10.68 0,-4.42 -0.23,-7.17 -2.21,-11.21 -0.85,-1.75 -1.89,-3.35 -3.14,-4.82 -2.07,-2.46 -4.74,-4.53 -7.68,-5.9 -8.86,-4.12 -19.06,-2.19 -26.03,4.71l-1.32 1.48c-2.29,2.67 -3.73,5.99 -4.59,9.43 -0.3,1.19 -0.62,3.75 -0.62,4.99z"/>
    <path class="fil8" d="M209.49 123.28c0,5.07 2,10.47 5.14,14.33 2.1,2.58 4.77,4.67 7.84,6.17 7.31,3.6 16.11,2.77 22.84,-1.8l3.01 -2.44 2.43 -2.88c0.8,-1.07 1.43,-2.14 2.06,-3.4 3.31,-6.62 2.98,-14.48 -0.5,-20.95 -6.99,-13.02 -25.01,-16.22 -36.08,-5.15 -4.25,4.25 -6.75,10.11 -6.75,16.11z"/>
    <path class="fil9" d="M178.07 79.91c0,6 2.19,11.08 5.94,15.31 0.3,0.34 0.32,0.48 0.66,0.81 1.06,1.06 3.48,2.9 4.77,3.64 11.66,6.67 25.92,2.28 31.96,-9.78 1.9,-3.8 2.26,-6.37 2.26,-10.87 0,-3.43 -1.09,-6.3 -2.13,-8.79 -1.3,-3.13 -4.77,-7.06 -7.58,-8.94 -7.29,-4.88 -14.63,-5.26 -22.58,-2.02 -3.97,1.62 -6.75,4.49 -9.2,7.76 -1.61,2.14 -2.77,5.08 -3.44,7.77 -0.37,1.47 -0.65,3.57 -0.65,5.11z"/>
    <path class="fil10" d="M127.32 62.06c0,4.53 0.18,7.26 2.26,11.46 0.61,1.22 1.29,2.32 2.08,3.37 1.33,1.78 1.11,1.46 2.63,2.98 10.74,10.75 29.34,7.39 36.16,-6.26 3.73,-7.47 2.98,-16.83 -1.94,-23.53 -1.07,-1.46 -1.13,-1.34 -1.95,-2.32l-1.97 -1.87c-1.23,-0.97 -1.71,-1.38 -3.14,-2.17 -1.98,-1.11 -3.53,-1.78 -5.89,-2.37 -7.15,-1.8 -15.59,0.17 -20.67,5.11 -0.65,0.63 -0.43,0.19 -1.29,1.22l-0.78 0.84c-2.91,3.12 -5.49,9.05 -5.49,13.54z"/>
    <path class="fil11" d="M76.43 219.03c0,5.69 0.95,9.41 4.16,14.13 2.24,3.3 5.53,5.78 9.11,7.56 4.28,2.11 10.01,2.63 14.85,1.41 4.73,-1.19 9.24,-3.85 12.24,-7.67 2.7,-3.45 4.61,-7.43 5.06,-11.91l0.17 -2.78c-0.04,-0.64 -0.12,-0.54 -0.15,-1.19 -0.03,-0.57 0,-0.84 -0.08,-1.39 -0.69,-4.52 -2.19,-8.37 -5.13,-11.84l-2.88 -2.87c-1.85,-1.49 -3.17,-2.26 -5.28,-3.27 -10.61,-5.11 -24.13,-0.47 -29.8,10.87 -1.13,2.26 -2.26,5.64 -2.26,8.95z"/>
    <path class="fil12" d="M139.87 150.24c-1,0 -1.99,0.01 -2.98,0.02 -1.02,0 -0.72,0.28 -1.16,-1.91 -0.87,-4.34 -4.02,-4.73 -7.38,-4.73 -4.31,0 -3.29,-1.02 -3.41,8.74 -0.02,1.01 -0.54,1.35 -1.02,1.91l-2.89 3.16c-0.45,0.53 -1.35,0.97 -1.11,1.98 0.37,1.59 3.72,0.56 5.03,0.52 0.64,1.52 0.56,1.85 1.69,2.69 1.21,0.9 2.07,0.83 3.77,0.83 3.02,-0.01 6.03,0 9.05,0 -0.18,0.87 -2.31,6.2 -2.81,7.54 -1.21,3.22 -0.24,2.64 6.74,2.63 4.37,-0.01 5.19,-3.05 8.37,-7.14 0.75,-0.96 1.49,-2.2 2.21,-3.02 2.12,-0 22.24,0.21 23.34,-0.19 4.04,-1.46 1.81,-12.41 -6.77,-12.98 -3.37,-0.22 -11.68,0.02 -15.76,-0.03l-7.08 -9.57c-2.02,-2.33 -5.66,-1.65 -9.62,-1.67 -2.74,-0.02 -1.91,1.39 -1.26,3.1 0.49,1.28 2.92,7.35 3.04,8.15z"/>
    <path class="fil12" d="M228.06 115.21c-1.13,0.07 -2.38,0.02 -3.52,0.02 -4.13,0 -3.42,-0.54 -3.43,3.19 -0.01,1.74 -0.43,2.04 1.24,2.04 -0.01,2.66 -0.34,13 0.24,14.51 0.07,0.18 0.74,0.2 0.91,0.2l9.01 -0.01c1.69,0 9.34,0.27 10.25,-0.15 0.42,-0.94 0.15,-12.4 0.15,-14.48l1.12 -0.17c0.21,-0.82 0.5,-4.69 -0.28,-5.04 -0.22,-0.09 -0.07,-0.06 -0.33,-0.09 -0.16,-0.02 -0.67,0 -0.87,0l-5.37 0c0.38,-0.74 0.74,-1.2 0.65,-2.27 -0.07,-0.8 -0.61,-1.64 -1.02,-1.94 -1.72,-1.2 -3.08,-0.52 -4.13,0.57 -2.68,-2.55 -4.97,-0.45 -5.22,1.22 -0.17,1.13 0.33,1.69 0.62,2.4z"/>
    <path class="fil13" d="M146.75 226.98l-2.87 0.04c-0.2,0.04 -0.27,0.08 -0.33,0.11 -0.33,0.88 -0.18,2.46 -0.11,3.54l0.53 0.17c0.02,0.01 0.07,0.03 0.09,0.04 0.02,0.01 0.07,0.04 0.09,0.04 0.02,0.01 0.06,0.03 0.09,0.05 0,0.85 0.16,2.57 -0.09,3.24 -3.65,0 -2.48,-0.2 -2.8,2.95 -2.79,0.14 -2.66,-0.51 -2.66,2.06 0,0.71 -0.07,1.26 0.13,1.94l0.92 0.22 -0.01 5.5c-0,0.6 -0.07,1.35 0.15,1.92 0.05,0.02 0.11,-0.01 0.15,0.04 0.03,0.06 0.1,0.03 0.14,0.04l18.74 0.07c0.15,0 0.45,0.01 0.6,-0 0.37,-0.03 -0.12,0.04 0.3,-0.04l0.43 -0.11 0.16 -0.88c0.01,-0.26 -0.01,-0.61 -0.01,-0.89l0 -5.61 0.92 -0.23 0.1 -3.32c-0.17,-1.02 -0.5,-0.62 -2.64,-0.73 -0.14,-1.36 0.35,-2.63 -0.6,-2.89l-2.2 -0.06c-0.26,-0.67 -0.09,-2.4 -0.09,-3.24l0.8 -0.3c0.01,-0.2 0.13,-4.2 -0.22,-3.58l-0.48 -0.11c-0.24,-0.02 -0.63,-0 -0.88,-0 -0.58,0 -1.15,0.01 -1.73,-0 0.65,-1.88 -0.63,-3.1 -2.1,-2.9 -0.46,0.06 -1.15,0.47 -1.18,0.47 -0.01,0 -0.63,-0.36 -1.05,-0.45 -0.61,-0.12 -1.13,-0 -1.56,0.27 -0.77,0.49 -1.09,1.43 -0.69,2.61z"/>
    <path class="fil1" d="M127.15 151.91l0.06 0.52c1.65,-0 7.16,-0.76 4.18,2.51l-3.03 3.16c-0.46,0.42 -0.66,0.48 -1.16,0.89 -0.13,1.52 0.85,2.26 2.34,2.26l10.62 0c0.49,-0.13 1.31,-2.86 1.47,-3.29 0.89,-2.36 0.7,-2.63 2.22,-2.63l13.57 0c0.82,0 1.47,0.29 1.44,1.14 -0.03,0.87 -2.49,3.39 -3.17,4.74 1.82,0.17 17.06,0.04 20.17,0.04 1.3,0 1.31,-0.98 1.1,-2.18 -2.07,-0.13 -4.43,0.35 -6.08,-0.7 -2.39,-1.54 -2.37,-3.27 -2.36,-5.91l-32.94 0c-1.13,0 -1.4,-0.39 -1.59,-1.47 -0.14,-0.8 -0.3,-1.82 -0.5,-2.59 -0.79,-3.02 -3.79,-2.57 -6.34,-2.57l0 6.08z"/>
    <path class="fil11" d="M95.79 214.8l-0.06 2.03c0.44,0.41 1.03,0.85 0.69,1.83 -0.24,0.7 -1.12,1.22 -1.99,0.8 -0.67,-0.32 -1.07,-1.39 -0.53,-2.13 0.68,-0.94 0.67,0.36 0.89,-2.38 -2.02,0.24 -5.7,1.31 -7.09,2.21 0.03,1.05 0.9,3.82 1.21,5.03l1.92 7.52c0.25,1.09 0.41,1.49 1.67,1.55 2.94,0.13 9.51,0.01 12.85,0 1.29,-0 1.72,-0.11 2.02,-1.21 0.24,-0.88 0.43,-1.73 0.65,-2.6 0.52,-2.05 2.47,-8.73 2.5,-10.38 -2.11,-0.85 -4.47,-1.84 -7.09,-2.13 0.2,2.66 0.14,1.44 0.84,2.36 0.55,0.72 0.25,1.72 -0.34,2.07 -0.85,0.5 -1.8,0.07 -2.08,-0.55 -0.52,-1.17 0.28,-1.57 0.79,-2.17 -0.14,-2.35 -0,-1.96 -2.44,-2.06 -1.48,-0.06 -2.93,-0 -4.39,0.19z"/>
    <path class="fil12" d="M73.59 175.36l-0.66 0.91c-1,-1.78 -2.95,-3.16 -5.8,-3.16l-9.74 0c-1.36,0 -1.81,0.46 -1.81,1.81l0 8.41c0,1.87 1.22,1.74 2.85,1.74 0.68,0.15 0.52,2.03 2.81,2.1 1.67,0.05 2.18,-0.92 2.8,-2.05 2.63,-0.34 11.96,0.35 12.81,-0.34 0.39,-0.31 0.33,-0.63 0.56,-1.25 0.01,-0.03 0.03,-0.08 0.06,-0.12 0.8,0 2.17,0.09 2.74,-0.13 0.22,-0.81 -1.77,-3.21 -2.29,-3.93 0.03,-0.02 0.09,-0.07 0.11,-0.04 0.02,0.04 0.08,-0.03 0.11,-0.04 1.15,-0.32 1.3,-0.09 -1.24,-3.91 0.02,-0.02 0.06,-0.09 0.07,-0.07 0.02,0.04 0.38,-0.28 0.41,-0.52 -0.18,-0.7 -1.62,-3.53 -1.94,-3.81 -0.89,0.09 -1.62,2.04 -2.2,3.3 -0.37,0.81 -0.06,0.69 0.35,1.11z"/>
    <path class="fil14" d="M98.41 71.95c-2.16,0.65 -7.66,-1.2 -7.25,1.9 0.22,1.69 1.13,0.26 1.33,2.37 0.24,2.57 1.25,14.07 1.66,15.03 0.47,1.09 1.57,0.92 2.78,0.91 7.59,-0.02 7.05,0.63 7.5,-3.56 0.24,-2.23 0.47,-4.46 0.69,-6.68 0.2,-1.97 0.37,-4.9 0.74,-6.73 0.7,-0.39 1.31,-0.75 1.21,-1.77 -0.22,-2.22 -3.7,-1.26 -7.56,-1.41l0.08 -3.61c0.71,-0.02 1.72,0.06 2.36,-0 1.04,-0.1 0.93,-1.02 -0.3,-1.02 -3.57,0 -3.02,-0.22 -3.11,1.91 -0.04,0.85 -0.04,1.84 -0.14,2.66z"/>
    <path class="fil15" d="M234.57 167.69c-1.77,0.2 -1.61,-0.37 -1.64,2.51 -0.02,2.19 0.15,1.27 0.67,1.77 0,1.72 -0.22,16.63 0.24,17.02 0.54,0.23 8.35,0.22 8.85,-0.01 0.44,-0.4 0.22,-15.28 0.22,-17.01 0.48,-0.46 0.69,0.22 0.67,-1.62 -0.02,-1.19 0.29,-2.28 -0.48,-2.55 -0.26,-0.09 -0.12,-0.05 -0.41,-0.09 -0.19,-0.02 -0.5,0.01 -0.74,-0.02 0.74,-0.75 0.09,-2.44 -0.57,-2.98 -0.88,-0.71 -2.52,-0.49 -3.11,0.22 -1.19,-1.13 -3.55,-0.81 -3.92,0.97 -0.15,0.72 0.09,1.74 0.23,1.78z"/>
    <path class="fil16" d="M141.26 64.13l0.57 5.61c-0.14,0.26 -0.03,0.07 -0.2,0.26 -0.76,0.81 -0.69,0.49 -1.43,1.71 -0.56,0.93 -0.61,1.54 -1.08,2.45 -0.59,0.08 -1.13,-0.15 -1.41,0.38 -0.59,1.14 3.13,0.71 4.8,0.71l18.44 0c0.5,0.01 1.3,0.19 1.44,-0.4 0.17,-0.71 -0.64,-0.63 -1.15,-0.7 -0.44,-0.75 -1.19,-1.56 -1.83,-2 -1.17,-0.81 -1.69,-0.76 -3.21,-0.81 1.22,-2.25 1.2,-2 -0.5,-3.23 0.96,-2.06 0.65,0.91 2.7,-2.71 0.54,-0.96 2.07,-2.88 0.46,-3.76 -1.79,-0.98 -2.48,1.07 -3.05,2.08 -0.24,0.43 -0.91,1.41 -0.93,1.89 -0.06,1.02 0.68,1.17 -0.21,1.93 -0.43,-0.36 -1.54,-0.89 -2.18,-0.22 -0.96,1.02 -0.05,1.35 -1.99,1.55l0.44 -4.75 1.14 -0.31c1.19,-3.51 -1.25,-2.79 -6.62,-2.79 -3.28,0 -6.02,-0.68 -5.57,1.93 0.14,0.79 0.62,0.99 1.37,1.17z"/>
    <path class="fil17" d="M206.64 222.18c-0.25,-0.3 -0.43,-0.66 -0.57,-1.04 -2.78,-0.16 -8.83,-0.07 -11.92,-0.03 -0.7,1.8 -4.09,6.77 -4.43,7.93 -0.4,-0.46 -0.1,-0.53 -0.88,-0.51 -0.48,0.6 -0.25,0.71 0.1,1.44 0.34,0.7 0.21,0.7 1.08,0.7l20.21 0c0.9,0 0.87,-0.22 1.56,-1.4 0.19,-0.32 0.13,-0.33 0.34,-0.66l0.78 -0.02c1.12,-0.36 -0.1,-1.54 -0.55,-1.94 -0.39,-0.36 -0.39,-0.43 -0.65,-0.83 0.22,0.22 0.29,0.1 0.72,-0.01 -0.02,-0.96 -1.17,-2.62 -1.5,-2.95 0.48,-0.22 0.86,0.12 0.52,-0.97l-1.93 -3.35c-0.78,-0.67 -1.09,0.28 -1.73,1.45 -0.33,0.6 -1.22,1.78 -1.14,2.19z"/>
    <path class="fil18" d="M223.23 172.21l-1.5 0.06c-0.29,0.99 -0.2,2.81 -0.09,3.98 0.45,0.2 0.33,0.01 0.68,0.3l0.01 12.49c1.52,0.26 7.57,0.18 9.27,0.05 0.14,-1.91 -0.12,-12.24 0.19,-12.63 0.27,-0.34 0.27,0.22 0.53,-0.63 0.06,-0.2 0.04,-0.94 0.04,-1.19 -0.01,-0.77 0.08,-1.51 -0.13,-2.24l-1.55 -0.17c1.12,-2 -0.78,-4.77 -3.74,-2.76 0.02,-0.19 0.01,-0.17 -0.38,-0.38 -0.26,-0.15 -0.51,-0.22 -0.83,-0.27 -0.68,-0.09 -1.32,0.02 -1.81,0.29 -0.91,0.52 -1.11,1.83 -0.67,3.11z"/>
    <path class="fil19" d="M193.11 82.79c1.24,0.38 2.65,0.15 3.05,-0.74l3.26 8.18c-2.09,0.04 -2.79,-0.33 -3.06,0.61 0.57,0.74 2.02,0.44 2.94,0.44 0.54,0 1.08,-0 1.62,0 0.2,0 0.55,0.02 0.74,0l0.85 -0.2 0.08 -0.69c-1.28,-0.51 -1.72,0.26 -2.17,-0.52l-1.56 -3.89c-0.51,-1.19 -1.4,-3.17 -1.72,-4.34 1.55,0.17 2.3,-0.44 2.75,-1.59 2.02,0.67 3.82,-0.42 3.5,-2.51 -0.11,-0.75 -0.16,-0.67 -0.63,-0.95l-8.65 -5.36c-0.58,-0.34 -1.35,-1.1 -2.18,-0.96 -0.65,0.94 -2.52,9.37 -3.14,11.4 -0.72,2.34 1.46,3.06 2.87,2.57 1.17,-0.4 0.82,-0.7 1.45,-1.45z"/>
    <path class="fil6" d="M56.61 174.13c-0.24,2.04 -0.1,6.75 -0.1,9.05 0,1.26 0.88,1.06 2.06,0.89 0.58,-1.31 0.95,-2.37 2.8,-2.35 1.08,0.01 2.06,0.71 2.42,1.55 0.43,1 -0,0.87 2.04,0.85 0,-1.25 0,-2.5 0,-3.74 0,-2.55 -0.76,-2.29 3.66,-2.29 1.15,0 0.89,0.22 0.89,2.44 0,1.2 -0,2.39 0,3.59 2.85,0.08 2.42,-1.91 2.42,-4.47 0,-3.27 -2.29,-5.58 -5.53,-5.58 -2.39,0 -8.7,-0.11 -10.67,0.07z"/>
    <path class="fil4" d="M140.89 247.8l18.3 0c0,-7.63 1.01,-6.44 -2.66,-6.44 -2.87,0 -14.68,-0.2 -15.64,0.07l0 6.37z"/>
    <path class="fil7" d="M234.71 188.05l7.09 0.01 0.07 -16.21 -7.24 -0.04c0,2.32 -0.26,15.15 0.08,16.24z"/>
    <path class="fil20" d="M67.72 128.15c0.3,0.22 0.07,0.07 0.4,0.22l1.34 0.54c-0.48,1.47 -1.88,3.45 -1.86,5 1.06,0.18 0.82,0.39 1.76,-1.93 0.21,-0.52 0.91,-2.2 1.17,-2.53 1.92,0.54 1.72,1.48 2.76,-0.91l4.22 -9.65c0.57,-1.44 0.4,-0.42 1.22,-1.1 0.11,-0.71 -0.93,-4.87 -1.22,-5.43 -0.87,-0.11 -1.73,0.55 -2.35,0.93 -1.74,1.06 -2.94,1.2 -2.65,2.12 0.2,0.61 0.44,0.04 0.07,0.94l-3.07 6.99c-0.43,0.92 -1.98,3.94 -1.78,4.83z"/>
    <path class="fil20" d="M58.57 117.07l0.75 0.32 2.52 12.94 2.19 -0.21c0.94,3.05 0.16,4.99 1.89,4.92 0.22,-1.11 -0.63,-3.79 -0.75,-5.15 0.65,-0.23 1.43,-0.25 1.94,-0.57 0.15,-0.8 -1.96,-11.49 -2.35,-12.98l0.47 -0.5c0.44,-0.66 0.12,-0.21 -0.85,-1.33 -0.46,-0.54 -0.56,-0.47 -1.03,-0.89 -0.19,-0.17 -1.54,-1.65 -2.13,-1.67 -0.81,-0.02 -2.67,4.55 -2.64,5.1z"/>
    <polygon class="fil7" points="223.39,188.08 230.61,188.08 230.6,176.37 223.39,176.37 "/>
    <path class="fil8" d="M223.34 134.15l6.8 0c0.14,-1.13 0.06,-2.75 0.06,-3.94 0,-1.28 -2.23,-1.88 -2.56,-4.28 -0.28,-2.03 0.45,-3.16 2.04,-3.85 0.56,-0.24 0.5,0.22 0.52,-1.62l-6.86 0 0 13.7z"/>
    <path class="fil8" d="M235.05 121.93c3.06,0.79 3.04,3.82 2.02,5.47 -0.39,0.63 -1.89,2.23 -1.96,2.45 -0.15,0.44 -0.08,3.66 -0.02,4.29l6.79 0.02 0.03 -13.65 -6.85 -0.05 0 1.47z"/>
    <path class="fil1" d="M142.35 171.37c3.35,0.11 3.14,-0.19 4.57,-2.07 0.99,-1.3 1.91,-2.55 2.89,-3.9 0.91,-1.26 1.91,-2.67 2.87,-3.92l2.86 -3.95 -8 0 -5.18 13.85z"/>
    <path class="fil3" d="M94.03 81.19c2.3,0.7 2.11,2.06 3.69,1.69 1.01,-0.24 1.76,-2.24 4,-1.57 1.19,0.35 1.04,1.15 2.3,1.6l0.79 -7.74 -11.39 0 0.61 6.02z"/>
    <path class="fil21" d="M199.61 229.18c0.28,-0.45 0.57,-0.71 1.25,-0.62 0.12,0.63 0.15,0.66 -0.24,1.11l9.04 0 -3.25 -5.66c-0.3,-0.54 -0.82,-1.52 -1.19,-1.89l-9.7 0 4.1 7.06z"/>
    <path class="fil3" d="M102.89 91.02c0.58,-0.63 0.86,-5.65 0.99,-6.98 -0.32,-0.19 -0.83,-0.37 -1.18,-0.61 -0.91,-0.64 -1.07,-2.33 -3.52,-0.23 -0.79,0.68 -1.56,1.07 -2.88,0.58 -1,-0.37 -1.24,-1.1 -2.14,-1.47 0.17,2.44 0.43,5.57 0.79,7.97 0.14,0.93 0.43,0.88 1.38,0.88 1.36,0 5.86,0.11 6.56,-0.14z"/>
    <polygon class="fil8" points="222.11,119.37 243.12,119.44 243.13,116.24 222.12,116.23 "/>
    <path class="fil10" d="M140.29 74.17l19.67 0.02c-0.56,-0.35 -0.8,-1.1 -1.85,-1.59 -1.94,-0.9 -3.59,0.77 -5.44,-2.26 -0.5,-0.81 -1.19,-0.65 -2.92,-0.3 -1.01,0.2 -2.17,0.85 -2.87,0.95 -1.17,0.17 -0.83,-0.75 -2.91,-0.53 -1.33,0.14 -2.01,0.42 -2.53,1.27 -0.26,0.44 -1.12,1.86 -1.14,2.43z"/>
    <path class="fil12" d="M166.49 130.35c-5.28,1.75 -2.61,9.28 2.39,7.8 1.91,-0.56 3.48,-2.65 2.73,-5.17 -0.54,-1.83 -2.63,-3.45 -5.12,-2.63z"/>
    <path class="fil1" d="M145.89 150.24l6.06 0 -1.99 -2.83c-0.81,-1.08 -3.53,-4.95 -4.19,-5.55 -0.88,-0.8 -2.68,-0.8 -4.04,-0.61 0.64,1.33 1.37,2.98 2,4.42 0.54,1.23 1.54,3.6 2.15,4.58z"/>
    <path class="fil8" d="M232.65 130.58c0.87,-0.58 3.5,-3.23 3.85,-4.32 0.43,-1.33 -0.03,-2.56 -0.83,-3.04 -1.71,-1.04 -2.43,0.74 -3.04,0.76 -0.61,0.03 -1.11,-1.65 -2.95,-0.85 -0.86,0.37 -1.37,1.72 -0.97,3.06 0.37,1.25 3.11,3.96 3.93,4.39z"/>
    <path class="fil10" d="M142.84 69.59c4.7,-0.57 2.77,0.56 4,0.32 0.22,-0.04 0.97,-0.38 1.23,-0.47 0.07,-1.17 -0.06,-3.18 0.49,-3.96l0.7 0 -0.14 3.63c0.56,-0.22 0.41,-0.89 0.54,-2.37 0.06,-0.74 0.32,-1.99 0.15,-2.64l-7.45 0 0.47 5.48z"/>
    <polygon class="fil4" points="145.41,234.22 154.61,234.22 154.69,230.84 145.4,230.82 "/>
    <path class="fil22" d="M67.7 166.23c-0.4,0.12 -0.73,0.45 -0.92,0.68 -0.61,0.75 0.11,0.38 -0.81,0.61 -2.54,0.62 -1.5,3.17 -0.44,3.57 0.42,0.16 4.77,0.43 5.69,-0.35 0.57,-0.48 0.83,-1.52 0.34,-2.45 -0.53,-1.01 -1.13,-0.28 -1.67,-1.28 -0.29,-0.53 -0.11,-0.46 -0.82,-0.7 -0.46,-0.15 -0.91,-0.22 -1.37,-0.08z"/>
    <path class="fil6" d="M74.36 173.98c0.27,0.59 1.14,0.09 0.13,1.66 -1.66,2.59 -0.69,1.01 -0.76,6.83l5.13 0.01c-0.33,-0.76 -1.12,-1.7 -1.58,-2.39 -0.59,-0.88 -1.72,-1.77 0.24,-1.87 -0.41,-0.87 -1.93,-2.81 -2.06,-3.61 0.36,-0.48 0.11,-0.17 0.59,-0.44l-0.79 -1.61c-0.44,0.36 -0.53,0.94 -0.9,1.41z"/>
    <path class="fil13" d="M148.55 242.05c-1.16,0.26 -1.94,1.99 -0.46,3.7 1.5,1.72 1.87,1.96 3.11,0.85 2.89,-2.61 1.42,-4.88 -0.53,-4.53 -1.71,0.3 -1.07,-0.24 -2.12,-0.02z"/>
    <path class="fil18" d="M236.49 176.83c-1.66,0.69 -0.91,3.49 1.08,4.82 1.4,0.94 4.07,-2.2 3.13,-4.14 -0.65,-1.34 -1.74,-0.53 -2.89,-0.75 -0.56,-0.11 -0.79,-0.16 -1.31,0.06z"/>
    <path class="fil18" d="M225.56 179.65c-1.62,0.36 -1.39,2.75 -0.53,3.63 0.27,0.28 0.44,0.26 0.74,0.59 0.3,0.33 0.25,0.51 0.59,0.74 0.81,0.56 1.2,-0.07 1.71,-0.56 1.04,-0.98 2.24,-2.15 1.35,-3.68 -0.35,-0.6 -0.94,-0.86 -1.87,-0.7 -1.41,0.24 -1.08,-0.23 -1.99,-0.02z"/>
    <path class="fil11" d="M95.99 213.81c2.34,-0.16 3.96,-0.04 6.22,-0.02 -0.29,-1.72 -1.44,-4.59 -3.08,-4.62 -1.67,-0.03 -2.84,2.81 -3.14,4.64z"/>
    <path class="fil22" d="M58.57 176.08c-0.03,0.99 -0.11,2.63 0.12,3.43l4.63 0.14c1.08,-0.08 0.85,-0.16 0.85,-2.67 0,-0.83 -0.19,-1 -1.02,-1 -1.67,0 -2.93,-0.06 -4.57,0.1z"/>
    <path class="fil23" d="M195.56 209.81c-1.52,-0.13 -2.82,1.35 -2.69,3.02 0.12,1.56 1.5,2.83 3.19,2.68 0.87,-0.07 1.51,-0.48 1.91,-0.93 1.52,-1.68 -0.72,-1.34 -0.72,-1.34 -0.87,-0.05 -1.42,-0.48 -1.67,-1.11 -0.43,-1.09 0.16,-1.38 -0.02,-2.32z"/>
    <path class="fil20" d="M67.16 110.6c-0.51,0.21 -0.84,0.71 -0.87,1.47 -0.04,0.9 1.49,4.28 3.5,2.37 2.11,-2 1.34,-4.18 -0.59,-3.93 -1.58,0.2 -1.11,-0.3 -2.04,0.08z"/>
    <path class="fil20" d="M59.56 130.88c0.5,-1.35 1.39,-4.64 -1.14,-4.64 -1.15,0 -0.99,0.57 -1.47,0.84 -0.58,0.32 -1.02,0.09 -1.32,0.96 -0.76,2.26 2.43,3.04 3.93,2.83z"/>
    <path class="fil20" d="M76.87 126.24c-1.17,0.24 -1.43,1.78 -0.89,3.07 0.7,1.67 0.75,2.09 2.58,1.16 0.56,-0.28 1.15,-0.52 1.4,-0.85 0.35,-0.47 0.56,-1.38 0.3,-2.02 -0.3,-0.74 -0.75,-0.62 -1.57,-0.86 -0.74,-0.22 -0.61,-0.75 -1.82,-0.5z"/>
    <path class="fil1" d="M176.4 156.81c-0.56,-1.87 -3.11,-4.15 -5.68,-4.28 -0.05,1.78 -0.02,3.06 1.13,3.83 1,0.67 3.24,0.59 4.55,0.46z"/>
    <polygon class="fil6" points="66.77,184.12 69.44,184.13 69.44,179.02 66.78,179.02 "/>
    <path class="fil8" d="M233.15 115.11c1.09,0.05 2.42,0.16 3.1,-0.48 1.92,-1.8 -1.06,-4.35 -2.65,-2.65 -0.62,0.67 -0.54,2.06 -0.45,3.12z"/>
    <path class="fil8" d="M232.07 115.13c0.87,-6.33 -5.74,-3.13 -3.11,-0.54 0.76,0.75 1.93,0.54 3.11,0.54z"/>
    <path class="fil16" d="M155.12 53.98c-2.05,0.74 -1.14,4.52 1.43,3.56 2.19,-0.82 1.14,-4.49 -1.43,-3.56z"/>
    <path class="fil16" d="M208.39 70.66c-2.21,0.96 -0.76,4.46 1.58,3.42 2.12,-0.94 0.89,-4.5 -1.58,-3.42z"/>
    <path class="fil1" d="M166.89 132.57c-0.37,0.19 -0.15,-0.05 -0.57,0.37 -1.39,1.41 0.28,3.95 2.23,2.96 1.98,-1 0.73,-4.52 -1.67,-3.33z"/>
    <path class="fil8" d="M231.2 134.15l2.83 -0.01 0.02 -3.3c-0.54,0.2 -0.92,0.91 -1.4,0.91 -0.59,0.01 -0.96,-0.73 -1.45,-0.98l0 3.37z"/>
    <path class="fil12" d="M163.06 137.43c-2.88,1.3 -1.86,4.15 -0.2,3.1 0.21,-0.13 1.56,-1.47 1.67,-1.74 0.38,-0.95 -0.46,-1.83 -1.47,-1.37z"/>
    <path class="fil12" d="M172.61 127.83c-2.76,1.39 -1.86,4.06 -0.19,3.1 0.17,-0.09 1.6,-1.52 1.7,-1.72 0.5,-1.07 -0.62,-1.83 -1.51,-1.38z"/>
    <path class="fil12" d="M161.72 127.85c-1.09,0.66 -0.44,1.52 0.27,2.22 0.39,0.39 1.19,1.49 2.15,0.83 1.03,-0.7 0.19,-1.63 -0.29,-2.11 -0.48,-0.48 -1.12,-1.55 -2.13,-0.95z"/>
    <path class="fil12" d="M171.43 137.41c-1.82,1.01 1.02,3.75 2.26,3.2 1.74,-0.77 -1.15,-3.81 -2.26,-3.2z"/>
    <path class="fil7" d="M238.83 167.71c0.65,0.02 1.52,0.15 1.98,-0.27 0.43,-0.39 0.56,-1.24 0.07,-1.78 -0.5,-0.56 -1.47,-0.47 -1.86,0 -0.3,0.37 -0.34,1.48 -0.2,2.05z"/>
    <path class="fil7" d="M237.68 167.7c0.59,-2.58 -1.35,-2.82 -2.06,-2.06 -0.24,0.27 -1.27,2.31 2.06,2.06z"/>
    <path class="fil12" d="M94.94 213.94c0,0 0,0 0,0z"/>
   </g>
  </g>
  <path class="fil24" d="M150 -0c82.84,0 150,67.16 150,150 0,82.84 -67.16,150 -150,150 -82.84,0 -150,-67.16 -150,-150 0,-82.84 67.16,-150 150,-150z"/>
  <polygon class="fil25" points="95.02,207.55 104.48,207.55 104.48,216.06 109.07,216.06 109.07,222.92 104.48,222.92 104.48,231.43 95.02,231.43 95.02,222.92 90.43,222.92 90.43,216.06 95.02,216.06 "/>
 </g>
</svg>
