<?xml version="1.0" encoding="UTF-8"?>
<!DOCTYPE svg PUBLIC "-//W3C//DTD SVG 1.1//EN" "http://www.w3.org/Graphics/SVG/1.1/DTD/svg11.dtd">
<!-- Creator: CorelDRAW 2017 -->
<svg xmlns="http://www.w3.org/2000/svg" xml:space="preserve" width="0.299992in" height="0.299992in" version="1.1" style="shape-rendering:geometricPrecision; text-rendering:geometricPrecision; image-rendering:optimizeQuality; fill-rule:evenodd; clip-rule:evenodd"
viewBox="0 0 299.99 299.99"
 xmlns:xlink="http://www.w3.org/1999/xlink">
 <defs>
  <style type="text/css">
   <![CDATA[
    .fil21 {fill:none}
    .fil4 {fill:#7E3A89}
    .fil0 {fill:#229F74}
    .fil2 {fill:#4B3676}
    .fil8 {fill:#23424A}
    .fil14 {fill:#2C5C6A}
    .fil7 {fill:#2C5D6B}
    .fil12 {fill:#337686}
    .fil5 {fill:#3D4655}
    .fil10 {fill:#9EC1D7}
    .fil20 {fill:#ADACB2}
    .fil15 {fill:#B4C0D1}
    .fil9 {fill:#BBD4D8}
    .fil6 {fill:#C5DAEB}
    .fil3 {fill:#E3AC7E}
    .fil13 {fill:#E3E5E4}
    .fil19 {fill:#EB7E34}
    .fil18 {fill:#EE4A24}
    .fil17 {fill:#F5AE52}
    .fil11 {fill:#F8BB85}
    .fil16 {fill:white}
    .fil1 {fill:#26273C;fill-opacity:0.278431}
   ]]>
  </style>
   <clipPath id="id0">
    <path d="M150 -0c82.84,0 150,67.16 150,150 0,82.84 -67.16,150 -150,150 -82.84,0 -150,-67.16 -150,-150 0,-82.84 67.16,-150 150,-150z"/>
   </clipPath>
 </defs>
 <g id="Layer_x0020_1">
  <metadata id="CorelCorpID_0Corel-Layer"/>
  <path class="fil0" d="M150 -0c82.84,0 150,67.16 150,150 0,82.84 -67.16,150 -150,150 -82.84,0 -150,-67.16 -150,-150 0,-82.84 67.16,-150 150,-150z"/>
  <g style="clip-path:url(#id0)">
   <g id="_2456126112816">
    <polygon id="1" class="fil1" points="212.86,93.39 151.66,-55.05 -15.88,62.14 42.94,255.06 "/>
    <path class="fil2" d="M105.74 206.25c1.82,-0.44 3.04,-1.06 5.02,-0.16 1.31,0.59 2.44,1.61 2.75,3.28 0.33,0.62 -1.02,0.09 -0.82,0.97 0.92,4.08 -3.4,8.17 -5.82,10.85 -1.69,1.87 -0.92,3.93 -0.92,7.43l0 17.44 97.97 0c0,-0.99 0.23,-10.48 0.2,-10.57 -0.8,-2.19 -2.98,-2.93 -3.46,-2.9 -1.69,0.11 -0.38,0.6 -1.08,-2.51 -0.42,-1.86 -0.55,3.87 -0.87,2.8 -0.25,-0.82 -1.48,0.93 -1.75,1.09 -1.35,0.81 -2.12,0.31 -2.93,-0.85 -0.76,-1.11 -2.33,-7.95 -3.15,-9.08 -5.33,3.48 -3.34,2.43 -4.87,-0.9l-2.49 -0.02c-11.65,-0.22 -23.51,-0.01 -35.18,-0.01l-30.77 0c-1.42,0.01 -2.54,-0.21 -2.84,-1.46 -0.81,-3.4 4.37,-2.54 6.24,-2.54 14.6,0 29.2,0 43.81,0 3.44,0 17.72,-0.24 20.19,-0.03 -1,-2.86 -2.42,-2.29 -8.81,-1.76 -1.84,0.15 -3.63,0.32 -5.44,0.48 -3.25,0.3 6.25,-2.4 3.11,-2.5 0.91,-0.75 -8.61,0.94 -7.14,0.34 1.13,-0.46 6.29,-2.45 6.85,-2.91 -1,-0.07 -9.3,0.71 -10.07,0.98 -0.66,-0.26 -1.74,0.06 -2.53,-0.02l0.3 -0.28c-2.36,-0.06 -4.74,-0.21 -7.11,-0.27 -1.23,-0.03 -2.46,-0.06 -3.69,-0.07 -1.23,-0.01 -2.56,0.23 -1.85,-1.34 -1.39,-0.18 -26.54,-0.05 -29.76,-0.05 -6,0 -5.81,-4.01 -0.71,-4.01l47.5 0c0.91,0 1.91,-0.11 2.52,0.39 0.88,0.72 0.39,1.63 0.83,2.13l4.94 -2 3.07 -1.26c0.15,-0.47 0.09,-1.26 0.27,-1.85 0.15,-0.48 0.37,-0.95 0.61,-1.38 0.5,-0.92 1.02,-1.7 1.54,-2.61 -5.52,-0.22 -11.47,-0.02 -17.04,-0.02l-34.03 0c-1.35,0 -11.74,0.2 -12.55,-0.19 -0.93,-0.44 -1.5,-1.7 -0.85,-2.83 0.66,-1.14 1.72,-0.98 3.33,-0.98l29.63 0c11.2,0 22.68,-0.24 33.85,0.01 1.57,-1.86 6.2,-6.2 6.6,-6.89 -2.99,-0.2 -6.63,-0.03 -9.69,-0.03l-26.37 0c-0.64,0 -1.33,-0.07 -1.96,0.07l-0.24 0.09c0.82,0.15 0.93,0.58 0.7,1.34 -0.73,0.19 -4.41,0.08 -5.74,0.2 -1.89,0.17 -3.65,0.12 -5.53,0.04 -1.84,-0.08 -3.69,-0.17 -5.52,-0.25 -2.5,-0.11 -5.06,0.24 -4.13,-1.5 -0.02,-0.02 -0.06,-0.05 -0.07,-0.06 -0.56,-0.47 -1.69,-1.22 -0.98,-2.82 0.5,-1.15 1.74,-1.11 3.19,-1.11l43.1 0c4.29,0 13.52,-0.18 17.19,0.02 0.59,-0.26 1.57,-1.52 2.17,-2.02 0.76,-0.64 1.94,-0.98 3.19,-0.94 2.58,0.08 4.3,1.56 6.43,2.05l-0.01 -84.3 -24.52 0c-0,0.51 0.04,0.92 -0.24,1.25 0.12,1.98 -1.59,3.98 -2.82,4.56 -1.22,0.58 -5.27,0.33 -6.91,0.33l-29.2 0c-2.27,0 -5.04,0.41 -6.44,-0.94 -1.58,-1.52 -1.96,-2.87 -2.12,-5.19l-26.07 -0.01 -0.02 105.26z"/>
    <path class="fil3" d="M105.74 206.25c-1.06,0.8 -1.63,0.81 -3.2,2.22 -1.22,1.11 -4.45,4.13 -5.49,5.43 -0.33,0.41 -2.17,2.63 -2.65,2.88l-0.07 -9.77c-0.51,0.15 -1.81,0.24 -2.41,0.35 -0.83,0.14 -1.76,0.27 -2.57,0.41 -1.72,0.29 -3.27,0.52 -5,0.81 -1.46,0.24 -3.66,0.5 -4.85,0.96 -2.5,0.98 -4.07,3.77 -5.84,5.79l-2.64 3.17c-1.88,2.39 -3.89,4.68 -5.89,7.29 -0.23,0.31 -0.37,0.44 -0.63,0.79 -3.95,5.26 -7.16,9.81 -11.3,14.93l-3.98 4.66c-0.26,0.28 -0.46,0.43 -0.7,0.72 -0.75,0.94 -3.12,3.29 -3.52,3.96 0.46,0.2 1.18,1.09 1.51,1.49l4.22 4.71c0.49,0.55 0.96,1.09 1.41,1.56l2.83 3.13c0.53,0.52 0.96,1 1.4,1.63l5.63 6.08c0.34,0.41 0.38,0.64 0.86,0.86 1.78,-1.06 1.37,-0.9 3.36,-1.76 2.21,-0.95 3.49,-1.02 5.62,-2.04 3.02,-1.45 3.74,-2.33 6.02,-4.18 0.5,-0.41 0.93,-0.7 1.41,-1.15 0.74,-0.71 1.78,-1.54 2.63,-2.47 0.43,-0.48 0.81,-0.83 1.27,-1.28 1.32,-1.3 2.03,-2.57 3.29,-3.81 0.29,-0.28 0.2,-0.04 0.22,-0.34 -0.1,-0.67 1.34,-2.29 2.07,-3.7 1.59,-3.04 2.58,-4.67 3.78,-8.11 0.94,-2.71 0.5,-1.32 1.34,-3.07l0.51 -0.87c0.02,-0.07 0.06,-0.07 0.09,-0.11l3.81 -6.42c0.69,-1.03 1.5,-2.14 2.23,-3.02 0.52,-0.61 2.01,-2.42 2.44,-2.7 0.3,-0.45 0.9,-0.96 1.28,-1.37 0.48,-0.53 0.83,-0.91 1.35,-1.46 0.22,-0.02 2.31,-2.42 2.5,-2.63 2.13,-2.42 5.58,-6.85 5.43,-10.46 -0.31,-1.67 -1.44,-2.69 -2.75,-3.28 -1.97,-0.89 -3.2,-0.28 -5.02,0.16z"/>
    <path class="fil4" d="M94.33 207.01l0.07 9.77c0.48,-0.25 2.32,-2.47 2.65,-2.88 1.04,-1.3 4.27,-4.32 5.49,-5.43 1.57,-1.41 2.15,-1.42 3.2,-2.22l0.02 -105.26 26.07 0.01c0.24,-3.49 1.59,-6.11 5.16,-6.09 2.82,0.01 2.56,0.17 4.33,-1.31 0.64,-0.54 2.42,-2.1 2.78,-2.77 -13.81,0 -27.61,0.01 -41.42,0 -3.11,0 -5.46,0.49 -7.2,3.14 -1.62,2.46 -1.16,5.76 -1.16,9.19l0 103.85z"/>
    <path class="fil3" d="M211.13 204.91c0.94,2.24 1.25,1.04 0.23,3.8 -0.46,1.26 -0.88,2.52 -1.33,3.77l-2.69 7.67c-0.63,-0.28 -1.45,-0.82 -2.02,-1.16l-3.89 -2.35 -8.52 -7.01c-0.72,-0.39 -1.2,-0.91 -2.11,-1.35 -0.75,-0.37 -1.69,-0.69 -2.63,-0.78 -2.11,-0.2 -4.04,0.68 -5.09,1.64 -0.43,0.93 -0.57,1.41 -0.41,2.65l-0.8 0.23 0.77 -0.01 1.26 3.02c0.21,0.44 -0.06,0.08 0.22,0.38 0.13,0.08 0.97,1.7 1.24,2.13 0.53,0.82 0.95,1.46 1.48,2.22 0.25,0.36 0.53,0.72 0.79,1.05 2.3,2.94 3.85,3.61 7.02,5.88 1.42,1.02 2.94,1.94 4.2,3.02 0.22,-0.02 1.07,0.59 1.33,0.94 0.63,0.22 2.15,1.46 2.88,1.96 0.55,0.37 2.48,1.61 2.79,2 0.33,0.14 1.74,1.1 2.02,1.39l5.61 3.34c0.64,0.34 1.35,0.59 1.95,1.04l4.5 2c1.51,0.77 5.56,1.95 7.39,2.4 0.66,0.16 0.27,-0.06 1.15,0.83 0.65,0.66 1.38,1.31 1.95,1.97 0.35,-0.22 0.63,-0.43 0.93,-0.73l1.96 -1.72c0.85,-0.71 4.24,-3.86 4.91,-4.26 0.57,-0.67 9.69,-8.49 11.62,-10.26 0.28,-0.26 0.15,-0.09 0.36,-0.41l-5.54 -5.3 -6.11 -10.91c-0.39,-0.7 -0.74,-1.28 -1.13,-1.99l-5.6 -9.99c-0.39,-0.65 -0.72,-1.37 -1.11,-1.97l-19.58 4.89z"/>
    <path class="fil4" d="M179.58 100.99l24.52 0 0.01 84.3c1.45,0.91 4.14,1.62 5.8,2.47 1.88,0.96 3.79,2 5.63,2.82 0,-30.65 -0.11,-61.46 0,-92.1 0.01,-3.16 -1.07,-4.93 -2.89,-6.32 -2.04,-1.55 -4.44,-1.33 -7.88,-1.33 -12.35,0 -24.7,0 -37.05,0 0.72,1.16 1.7,2.07 2.71,2.86 2,1.57 1.09,1.19 4.28,1.22 4.19,0.04 4.43,4.14 4.87,6.09z"/>
    <path class="fil4" d="M94.47 237.43c-0.35,2.13 0.26,11.32 -0.14,12.24 0.05,2.54 1.54,4.58 3.13,5.59 2.24,1.44 4,1.14 7.51,1.14l86.48 0c5.76,0 11.55,0.06 17.3,0 2.5,-0.02 4.58,-1.48 5.61,-3.04 1.38,-2.11 1.19,-4.22 1.19,-7.57l-0.11 -5.44c-0.6,-0.44 -1.31,-0.7 -1.95,-1.04l-5.61 -3.34 0.35 13.21 -105.71 0 0.43 -23.9c-0.43,0.28 -1.93,2.09 -2.44,2.7 -0.73,0.87 -1.55,1.99 -2.23,3.02l-3.81 6.42z"/>
    <path class="fil5" d="M231.98 254.75c-0.3,0.36 -0.61,0.81 -1.13,0.95 0.07,0.78 0.97,1.37 1.44,1.96l1.57 1.83c0.22,0.24 0.35,0.33 0.56,0.58l3.77 4.31c0.48,0.47 0.67,0.81 1.13,1.28l12.96 14.69c0.39,0.48 0.69,0.74 1.06,1.22 0.4,0.52 0.69,0.74 1.05,1.22 1.06,1.38 4.04,4.45 5.37,6.11 0.37,0.47 0.72,0.76 1.13,1.28 1.02,1.28 3.46,3.72 4.27,4.94l8.8 0c0.16,-1.07 0.06,-8.49 0.06,-10.2 0,-2.6 0.35,-2.98 -0.85,-4.17l-1.77 -2.06c-0.21,-0.24 -0.35,-0.33 -0.56,-0.57 -0.24,-0.27 -0.32,-0.44 -0.58,-0.7l-11.28 -12.83c-1.62,-1.96 -4.52,-4.94 -5.99,-6.77 -0.38,-0.47 -0.75,-0.81 -1.12,-1.29 -0.38,-0.48 -0.79,-0.88 -1.18,-1.37 -1.49,-1.85 -4.38,-4.76 -5.93,-6.69 -0.37,-0.45 -1.83,-2.39 -2.41,-2.49 -0.68,0.31 -6.6,5.76 -7.77,6.66 -0.61,0.47 -2.07,1.89 -2.6,2.13z"/>
    <path class="fil6" d="M144.11 90.82c-0.36,0.67 -2.14,2.24 -2.78,2.77 -1.77,1.48 -1.5,1.32 -4.33,1.31 -3.57,-0.01 -4.92,2.6 -5.16,6.09l47.64 0.02 -0.14 1.22c0.28,-0.33 0.24,-0.74 0.24,-1.25 -0.44,-1.94 -0.68,-6.05 -4.87,-6.09 -3.19,-0.03 -2.28,0.35 -4.28,-1.22 -1.01,-0.8 -1.99,-1.7 -2.71,-2.86 -0.78,-0.67 -1.96,-2.86 -2.59,-3.89 -1.06,-1.74 0.13,-1.04 0.93,-4.77 0.29,-1.35 0.18,-2.96 -0.1,-4.13 -2.57,-10.56 -17.45,-10.46 -19.91,0 -0.68,2.9 -0.12,4.93 1.08,7.35 0.43,0.88 -0.27,1.56 -1.06,2.88 -0.31,0.52 -1.54,2.24 -1.96,2.56z"/>
    <path class="fil7" d="M255.5 234.15c-0.2,0.49 -3.44,3.22 -4.06,3.71 -1.11,0.88 -8.44,7.58 -9.06,7.92l-0.02 0.19c0.58,0.09 2.04,2.04 2.41,2.49 1.55,1.92 4.44,4.83 5.93,6.69 0.39,0.49 0.8,0.89 1.18,1.37 0.37,0.48 0.74,0.82 1.12,1.29 1.47,1.83 4.37,4.81 5.99,6.77l11.28 12.83c0.26,0.27 0.34,0.43 0.58,0.7 0.2,0.23 0.35,0.33 0.56,0.57l1.77 2.06c1.2,1.19 0.85,1.57 0.85,4.17 0,1.71 0.1,9.13 -0.06,10.2l0.28 0 0 -7.13c-0,-10.47 -0.02,-20.94 0,-31.41l0 -2.67c-0.1,-0.44 -0.46,-0.84 -1.52,-1.91 -0.45,-0.45 -0.66,-0.8 -1.13,-1.28 -0.31,-0.31 -0.33,-0.38 -0.58,-0.7l-2.94 -3.3c-1.63,-2.11 -5.92,-6.5 -7.49,-8.53l-3.52 -4c-0.34,-0.33 -0.41,-0.28 -0.53,-0.74 -0.6,0.14 -0.68,0.27 -1.02,0.71z"/>
    <path class="fil3" d="M192.32 186.2c-0.37,0.71 -1.34,1.49 -1.94,2.09 -0.55,0.55 -1.43,1.61 -2.02,1.92 -0.39,0.69 -5.02,5.03 -6.6,6.89l-2.35 4.02c-0.51,0.91 -1.04,1.69 -1.54,2.61 -0.23,0.43 -0.45,0.9 -0.61,1.38 -0.19,0.59 -0.13,1.38 -0.27,1.85 0.38,0.18 0.37,0.44 1.07,0.73 0.5,0.2 1.02,0.28 1.59,0.24 1.29,-0.08 1.88,-0.63 2.85,-1.06l1.85 -1.62c0.9,-0.76 1.32,-1.39 1.98,-1.47l-0.01 -0.17c0,-0.02 0,-0.06 0.01,-0.08l9.2 -8.64c0.21,-0.23 0.37,-0.34 0.57,-0.53 0.77,0.28 1.78,0.94 2.73,1.34 2.08,0.87 6.69,2.91 8.51,3.24 0.93,0.01 4.05,-0.86 5.14,-1.13l9.83 -2.37c1.11,-0.25 4.13,-0.79 4.87,-1.27 -1.56,-1.85 -5.89,-2.86 -8.41,-2.98 -2.04,-0.09 -1.73,0.02 -3.26,-0.62 -1.85,-0.82 -3.76,-1.86 -5.63,-2.82 -1.66,-0.85 -4.35,-1.56 -5.8,-2.47 -2.13,-0.49 -3.85,-1.97 -6.43,-2.05 -1.25,-0.04 -2.44,0.3 -3.19,0.94 -0.6,0.5 -1.58,1.76 -2.17,2.02z"/>
    <path class="fil8" d="M102.95 225.3l-0.43 23.9 105.71 -0 -0.35 -13.21c-0.28,-0.28 -1.69,-1.25 -2.02,-1.39l-1.74 0.89 -0.03 10.81 -98.31 -0.06c-0.14,-1.43 -0.03,-9.78 -0.03,-11.95 0,-0.63 0.22,-11.22 -0.17,-11.83 -0.52,0.55 -0.87,0.93 -1.35,1.46 -0.38,0.41 -0.97,0.92 -1.28,1.37z"/>
    <path class="fil5" d="M43.13 295.11c0.56,-0.05 0.79,-0.26 1.48,-0.95l4.25 -3.83c0.27,-0.26 0.43,-0.46 0.71,-0.7 0.34,-0.29 0.44,-0.31 0.78,-0.64 0.24,-0.24 0.39,-0.42 0.64,-0.63l10.87 -9.69 -1.13 -1.35c-0.41,-0.23 -0.39,-0.28 -0.69,-0.65l-1.61 -1.78c-0.41,-0.5 -0.72,-0.75 -1.17,-1.24l-5.44 -5.94c-0.57,-0.05 -0.26,-0.13 -0.66,0.25l-1.55 1.43c-2.31,2.15 -6.25,5.33 -8.43,7.45l-6.39 5.56 0 12.72 8.34 0z"/>
    <path class="fil9" d="M116.4 140.22c-1.38,0.25 -2.3,1.89 -1.24,3.2 0.92,1.13 2.82,0.78 4.54,0.78 5.91,0 72.89,0.17 73.99,-0.06 1.41,-0.3 2.07,-2.04 1.09,-3.21 -0.89,-1.06 -2.82,-0.74 -4.48,-0.74 -5.78,0 -73,-0.13 -73.91,0.03z"/>
    <path class="fil9" d="M116.17 162.79c-1.47,0.44 -2.07,2.21 -0.9,3.35 0.94,0.92 3.23,0.57 4.72,0.57l63.23 0c1.76,0 9.48,0.22 10.58,-0.1 1.33,-0.38 1.95,-2.27 0.76,-3.35 -1.01,-0.92 -3.19,-0.56 -4.68,-0.56 -6.48,0 -72.72,-0.2 -73.71,0.09z"/>
    <path class="fil10" d="M179.33 102.24l0.14 -1.22 -47.64 -0.02c0.16,2.32 0.54,3.68 2.12,5.19 1.41,1.35 4.17,0.94 6.44,0.94l29.2 0c1.64,0 5.69,0.24 6.91,-0.33 1.22,-0.58 2.94,-2.58 2.82,-4.56z"/>
    <path class="fil9" d="M183.52 223.12c-0.14,-0.73 -0.34,-1.39 -0.54,-2.09 -0.17,-0.61 -0.55,-1.52 -0.63,-1.89l-0.09 0.01c-2.47,-0.2 -14.04,-0.04 -17.47,-0.04 -14.6,0 -29.2,0 -43.81,0 -1.87,0 -7.05,-0.86 -6.24,2.54 0.3,1.25 1.42,1.47 2.84,1.46l30.77 -0c11.67,0 23.54,-0.21 35.18,0.01z"/>
    <path class="fil9" d="M116.21 174.01c-1.17,0.25 -1.93,1.34 -1.42,2.81 0.43,1.25 1.72,1.16 3.21,1.16 5.63,-0 60.07,0.2 61.15,-0.06 1.06,-0.26 1.65,-1.45 1.22,-2.73 -0.41,-1.24 -1.6,-1.21 -3.11,-1.21 -5.65,0.01 -60,-0.18 -61.05,0.04z"/>
    <path class="fil9" d="M179.42 201.11l2.35 -4.02c-11.17,-0.25 -22.65,-0.01 -33.85,-0.01l-29.63 0c-1.61,0 -2.67,-0.16 -3.33,0.98 -0.65,1.13 -0.08,2.39 0.85,2.83 0.81,0.39 11.2,0.19 12.55,0.19l34.03 0c5.57,0 11.52,-0.2 17.04,0.02z"/>
    <path class="fil7" d="M34.78 282.39l6.39 -5.56c2.17,-2.12 6.11,-5.3 8.43,-7.45l1.55 -1.43c0.4,-0.37 0.09,-0.3 0.66,-0.25l-0.09 -0.23c-0.68,-0.45 -0.9,-1.01 -1.41,-1.5l-2.85 -3.1c-0.28,-0.28 -0.44,-0.54 -0.7,-0.86 -0.27,-0.32 -0.4,-0.4 -0.7,-0.71l-1.41 -1.56c-0.28,-0.31 -0.43,-0.57 -0.71,-0.86l-3.47 -3.89c-0.28,-0.51 -0.23,-0.52 -0.72,-0.85l-4.37 3.85c-0.35,0.34 -0.52,0.59 -0.59,0.92l0 23.48z"/>
    <path class="fil9" d="M129.89 190.17c1.05,-0.33 8.34,0.25 10.07,0.32 3.52,0.15 6.75,-0.4 10.15,-0.16l0.24 -0.09c0.63,-0.14 1.31,-0.07 1.96,-0.07l26.37 0c3.06,0 6.69,-0.18 9.69,0.03 0.59,-0.31 1.47,-1.37 2.02,-1.92 0.6,-0.6 1.57,-1.38 1.94,-2.09 -3.67,-0.2 -12.9,-0.02 -17.19,-0.02l-43.1 0c-1.45,0 -2.69,-0.03 -3.19,1.11 -0.7,1.6 0.43,2.35 0.98,2.82 0.01,0.01 0.05,0.04 0.07,0.06z"/>
    <path class="fil9" d="M148.61 211.76c1.16,-0.37 8.83,0.04 10.93,0.15 0.6,0.04 1.2,0.08 1.81,0.1 0.84,0.03 1.03,-0.06 1.33,0.62l0.32 0.18c0.06,0.02 0.15,0.01 0.22,0.02l2.69 -1.38c0.5,-0.22 0.98,-0.39 1.52,-0.61 0.23,-0.1 0.44,-0.19 0.69,-0.29l0.75 -0.29c0.03,-0.01 0.07,-0.03 0.11,-0.05 -0.44,-0.49 0.05,-1.4 -0.83,-2.13 -0.61,-0.5 -1.62,-0.39 -2.52,-0.39l-47.5 0c-2.03,0 -3.67,-0.13 -3.48,2.32 0.17,2.11 2.32,1.69 4.19,1.69 3.23,0 28.37,-0.13 29.76,0.05z"/>
    <path class="fil2" d="M155.09 72.15c-4.25,0.5 -7.82,4.26 -7.28,9.13 0.48,4.22 4.35,7.8 9.17,7.23 4.17,-0.49 7.75,-4.31 7.2,-9.12 -0.48,-4.2 -4.31,-7.8 -9.09,-7.24z"/>
    <path class="fil9" d="M144.44 155.45l46.85 0c1.01,0 2.26,0.17 3.04,-0.35 0.58,-0.39 1.15,-1.26 0.8,-2.33 -0.61,-1.81 -3.24,-1.33 -5.39,-1.33 -7.2,0 -46.29,0.15 -46.91,-0.08l-0.98 1.39c0.59,0.63 0.82,0.77 1.4,1.29 0.45,0.4 1.13,0.7 1.2,1.41z"/>
    <path class="fil9" d="M176.68 133.47c0.04,-0.78 1.65,-2.65 2.09,-3.42l-0.94 -0.94c-0.5,0.36 -11.97,0.16 -12.48,0.16l-31.61 0c-1.93,0 -4.5,-0.48 -4.94,1.41 -0.23,0.96 0.1,1.87 0.78,2.3 0.72,0.45 1.82,0.3 2.74,0.3 14.17,-0.01 28.69,0.12 42.82,-0 0.99,-0.01 1.13,-0.12 1.54,0.19z"/>
    <path class="fil9" d="M141.04 116.53c-2.72,0.72 -2.41,4.78 0.63,4.93 2.98,0.15 6.34,0 9.37,0 2.37,0 17.69,0.16 18.66,-0.07 2.65,-0.64 2.57,-4.76 -0.65,-4.93 -2.96,-0.15 -6.36,-0 -9.37,-0 -2.28,0 -17.78,-0.15 -18.64,0.08z"/>
    <path class="fil9" d="M116.34 230.57c-1.61,0.34 -2.28,2.2 -1.12,3.38 0.87,0.88 3.27,0.58 4.76,0.58 3.65,0 31.31,0.19 32.37,-0.06 1.43,-0.33 2.15,-2.17 0.98,-3.33 -0.93,-0.93 -3.14,-0.62 -4.71,-0.62 -2.33,0 -31.46,-0.13 -32.28,0.05z"/>
    <path class="fil11" d="M207.11 205.91c-0.59,0.19 -0.61,0.06 -1.07,0.45 -0.75,0.66 -2.24,0.79 -3.24,0.99l-9.9 2.28 8.52 7.01 3.89 2.35c0.56,0.34 1.38,0.88 2.02,1.16l2.69 -7.67c0.46,-1.24 0.87,-2.5 1.33,-3.77 1.02,-2.75 0.71,-1.55 -0.23,-3.8l-4.01 1z"/>
    <path class="fil12" d="M206.2 202.4l0.02 0.12 0.89 3.39 4.01 -1 19.58 -4.89 8.06 -2.02 -0.75 -3.37 -0.04 -0.11c-0.36,0.33 -20.47,5.17 -23.79,5.97l-7.99 1.91z"/>
    <path class="fil6" d="M250.2 230.18c-0.21,0.32 -0.08,0.15 -0.36,0.41 -1.93,1.77 -11.05,9.59 -11.62,10.26 0.25,0.52 0.57,0.86 0.98,1.25l3.17 3.67c0.62,-0.34 7.96,-7.04 9.06,-7.92 0.62,-0.49 3.87,-3.22 4.06,-3.71l-3.07 -3.42c-0.35,-0.44 -0.85,-0.66 -1.01,-1.26 -0.86,0.07 -0.5,0.46 -1.21,0.71z"/>
    <path class="fil13" d="M163.49 213.73c0.77,-0.28 9.06,-1.06 10.07,-0.98 -0.56,0.45 -5.72,2.44 -6.85,2.91 -1.47,0.6 -5.97,2.3 -6.88,3.05 3.14,0.1 7.66,-0.59 10.91,-0.89 1.81,-0.17 3.61,-0.33 5.44,-0.48 6.39,-0.53 5.09,-1.04 6.09,1.82l0.09 -0.01 2.63 -0.06c-0.24,-1.01 -0.91,-2.74 -0.85,-3.67 -0.28,-0.3 -0.01,0.06 -0.22,-0.38l-1.26 -3.02 -0.77 0.01 -6.67 0.51 -0.52 -2.26c-0.8,0.03 -10.68,2.46 -11.2,2.76l-0 0.7z"/>
    <path class="fil6" d="M40.46 254.99l3.47 3.89c0.28,0.29 0.43,0.55 0.71,0.86l1.41 1.56c0.3,0.31 0.43,0.39 0.7,0.71 0.26,0.31 0.43,0.57 0.7,0.86l2.85 3.1c0.51,0.49 0.73,1.04 1.41,1.5 0.22,-0.97 0.43,-0.48 1.07,-1.16 0.19,-0.2 0.19,-0.28 0.48,-0.5 0.37,-0.28 0.3,-0.13 0.65,-0.49 0.52,-0.54 0.76,-0.52 1.19,-0.93l1.25 -1.02c-0.43,-0.63 -0.87,-1.11 -1.4,-1.63l-2.83 -3.13c-0.45,-0.48 -0.92,-1.01 -1.41,-1.56l-4.22 -4.71c-0.33,-0.4 -1.05,-1.29 -1.51,-1.49l-4.53 4.14z"/>
    <path class="fil14" d="M227.2 194.17c-0.74,0.48 -3.76,1.02 -4.87,1.27l-9.83 2.37c-1.09,0.28 -4.22,1.15 -5.14,1.13 -0.38,0.35 -1.31,0.38 -1.86,0.56l0.7 2.9 7.99 -1.91c3.31,-0.8 23.43,-5.64 23.79,-5.97l-0.57 -2.75 -7.57 1.83c-0.76,0.16 -1.93,0.56 -2.64,0.58z"/>
    <path class="fil9" d="M138.17 155.62c0.36,-0.41 1.56,-2.2 1.71,-2.76 -0.69,-0.51 -1.06,-1.04 -1.59,-1.53 -0.63,0.32 -16.09,0.12 -19,0.12 -1.96,0 -4.45,-0.33 -4.55,1.9 -0.11,2.35 2.26,2.11 4.27,2.11l18.83 0.03c0.29,0.07 0.2,0.04 0.34,0.13z"/>
    <path class="fil15" d="M230.43 247.57l-1.19 1.12c-0.48,0.37 -0.76,0.89 -1.36,1.05 0.08,0.93 3.48,3.87 4.11,5.01 0.52,-0.24 1.99,-1.66 2.6,-2.13 1.17,-0.9 7.09,-6.35 7.77,-6.66l0.02 -0.19 -3.17 -3.67c-0.41,-0.39 -0.73,-0.73 -0.98,-1.25 -0.67,0.4 -4.06,3.55 -4.91,4.26l-1.96 1.72c-0.3,0.3 -0.57,0.51 -0.93,0.73z"/>
    <path class="fil15" d="M51.72 267.47l0.09 0.23 5.44 5.94c0.44,0.49 0.76,0.74 1.17,1.24l1.61 1.78c0.31,0.37 0.29,0.42 0.69,0.65 0.74,-0.71 4.13,-3.57 4.54,-4.18 -0.22,-0.33 -0.33,-0.38 -0.6,-0.68 -0.27,-0.3 -0.28,-0.4 -0.57,-0.71 -0.55,-0.59 -0.82,-0.7 -1.24,-1.43 -0.48,-0.22 -0.52,-0.45 -0.86,-0.86l-5.63 -6.08 -1.25 1.02c-0.44,0.41 -0.67,0.39 -1.19,0.93 -0.35,0.36 -0.28,0.21 -0.65,0.49 -0.29,0.22 -0.29,0.3 -0.48,0.5 -0.64,0.67 -0.85,0.19 -1.07,1.16z"/>
    <path class="fil11" d="M186.35 203.77l14.52 -3.63c0.71,-0.22 1.61,-0.46 2.33,-0.61 0.77,-0.17 0.5,0.01 1.06,0.12 0.46,0.09 0.73,-0.06 1.25,-0.15 0.55,-0.18 1.48,-0.21 1.86,-0.56 -1.81,-0.34 -6.43,-2.37 -8.51,-3.24 -0.94,-0.4 -1.96,-1.07 -2.73,-1.34 -0.2,0.19 -0.36,0.3 -0.57,0.53l-9.2 8.64c-0.01,0.02 -0.01,0.07 -0.01,0.08l0.01 0.17z"/>
    <path class="fil3" d="M184.98 219.08l1.04 4.06c0.85,3.04 2.5,3.65 4.9,1.85 0.5,0.9 1.14,2.95 1.54,4.03 0.36,0.98 1.12,3.34 1.57,4.09 1.12,1.83 4.76,0.86 5.31,-1.15 0.26,-0.93 -0.32,-1.44 -0.49,-2.27 -1.25,-1.08 -2.78,-2 -4.2,-3.02 -3.17,-2.28 -4.72,-2.94 -7.02,-5.88 -0.26,-0.33 -0.54,-0.69 -0.79,-1.05 -0.52,-0.76 -0.95,-1.39 -1.48,-2.22 -0.27,-0.43 -1.11,-2.04 -1.24,-2.13 -0.06,0.93 0.61,2.67 0.85,3.67z"/>
    <path class="fil14" d="M186.35 203.77c-0.66,0.09 -1.09,0.71 -1.98,1.47l-1.85 1.62 0.31 1.37 0.09 0.01c0.76,-0.48 16.72,-4.23 18.87,-4.71l-0.91 -3.41 -14.52 3.63z"/>
    <path class="fil4" d="M146.98 94.87l17.82 0.03c-0.39,-0.73 -2.18,-2.6 -2.78,-3.96l-11.83 0.01c-0.42,0.09 -1.32,1.61 -1.59,1.97 -0.51,0.71 -1.13,1.38 -1.62,1.95z"/>
    <path class="fil9" d="M178.27 133.4c0.87,-0.26 10.87,-0.11 13.17,-0.11 1.52,0 2.8,0.17 3.49,-0.84 0.76,-1.12 0.17,-2.57 -0.74,-2.98 -1.2,-0.55 -12.25,0.13 -12.96,-0.33l-0.48 0.89c0.5,0.34 0.85,0.79 1.32,1.23 0.55,0.53 0.92,0.69 0.5,1.58 -1.24,0.33 -1.89,-1.08 -2.74,-1.7 -0.52,0.7 -1.07,1.54 -1.56,2.28z"/>
    <path class="fil16" d="M107.88 206.37c-2.37,0.7 -4.49,3.76 -4.42,4.66 0.07,0.83 3.91,4.05 5.04,4.08 1.65,0.04 4.18,-3.98 4.19,-4.77 0.01,-1.99 -2.42,-4.68 -4.8,-3.97z"/>
    <path class="fil16" d="M185.68 208.91c-4.28,1.39 0.08,8.15 1.02,8.44 0.91,0.28 1.59,-0.9 2.65,-1.74 2.95,-2.34 4.72,-2.15 2.59,-4.36 -0.95,-0.98 -3.96,-3.08 -6.26,-2.34z"/>
    <path class="fil3" d="M86.67 253.29c1.42,0.02 0.9,0.44 2.36,-0.05 0.97,-0.32 1.3,-0.48 2.05,-0.93 1.25,-0.75 2.21,-1.59 3.25,-2.63 0.4,-0.92 -0.21,-10.11 0.14,-12.24 -0.04,0.03 -0.08,0.04 -0.09,0.11l-0.51 0.87c-0.83,1.76 -0.39,0.37 -1.34,3.07 -1.2,3.44 -2.19,5.06 -3.78,8.11 -0.74,1.41 -2.18,3.03 -2.07,3.7z"/>
    <path class="fil12" d="M182.91 208.25l0.17 0.88c1.05,-0.96 2.98,-1.84 5.09,-1.64 0.94,0.09 1.87,0.41 2.63,0.78 0.91,0.44 1.38,0.96 2.11,1.35l9.9 -2.28 -1.03 -3.81c-2.15,0.48 -18.11,4.23 -18.87,4.71z"/>
    <path class="fil17" d="M238.02 194.63l0.75 3.37c0.96,0.59 0.82,0.44 2,0.14l6.81 -1.7c-0.02,-0.96 -0.65,-2.72 -0.85,-3.73 -0.67,-0.29 -3.29,0.62 -4.29,0.87 -1.43,0.35 -2.99,0.81 -4.42,1.05z"/>
    <path class="fil18" d="M129.89 190.17c-0.93,1.74 1.64,1.39 4.13,1.5 1.83,0.08 3.68,0.17 5.52,0.25 1.89,0.08 3.65,0.13 5.53,-0.04 1.33,-0.12 5.01,-0.01 5.74,-0.2 0.22,-0.76 0.12,-1.2 -0.7,-1.34 -3.39,-0.24 -6.63,0.3 -10.15,0.16 -1.74,-0.07 -9.02,-0.65 -10.07,-0.32z"/>
    <path class="fil18" d="M115.81 236.74c1.98,0.49 11.65,0.73 14.43,0.46 1.26,-0.13 4.23,0.03 4.97,-0.16 0.32,-1.09 -0.13,-1.36 -1.23,-1.42 -2.98,-0.15 -5.26,0.37 -8.62,0.21l-8.36 -0.41c-1.31,-0.07 -1.62,0.22 -1.19,1.32z"/>
    <path class="fil19" d="M237.42 191.76l0.57 2.75 0.04 0.11c1.43,-0.24 2.99,-0.7 4.42,-1.05 1,-0.25 3.62,-1.16 4.29,-0.87l0 -0.2c-0.41,-0.65 -0.59,-1.87 -0.75,-2.73 -0.87,0.02 -7.7,1.9 -8.56,1.98z"/>
    <path class="fil18" d="M130.98 135.26c1.59,0.46 11.43,0.31 14.81,0.28 1.23,-0.02 2.52,0.19 1.97,-1.32 -0.9,-0.37 -5.28,-0.12 -6.79,-0.12l-8.53 -0.15c-1.25,-0.05 -1.93,-0.11 -1.46,1.31z"/>
    <path class="fil17" d="M174.67 210.17l0.02 0.11 0.52 2.26 6.67 -0.51 0.8 -0.23c-0.17,-1.25 -0.02,-1.73 0.41,-2.65l-0.17 -0.88 -0.09 -0.01 -8.15 1.93z"/>
    <path class="fil18" d="M148.61 211.76c-0.71,1.57 0.62,1.33 1.85,1.34 1.23,0.01 2.46,0.04 3.69,0.07 2.37,0.06 4.75,0.21 7.11,0.27 0.35,-0.05 0.51,-0.13 0.81,-0.28 0.03,-0.02 0.36,-0.2 0.37,-0.2 0.28,-0.23 0.12,0.01 0.24,-0.32 -0.3,-0.68 -0.5,-0.59 -1.33,-0.62 -0.6,-0.02 -1.2,-0.07 -1.81,-0.1 -2.1,-0.11 -9.77,-0.52 -10.93,-0.15z"/>
    <path class="fil18" d="M138.28 151.33c0.54,0.49 0.9,1.02 1.59,1.53 -0.15,0.56 -1.35,2.35 -1.71,2.76 -0.42,0.87 -0.14,1.27 0.87,1.25 0.67,-0.8 1.45,-1.96 1.96,-2.77 0.5,0.43 1.02,0.89 1.57,1.32 0.68,0.52 1.22,1.07 1.87,0.03 -0.07,-0.7 -0.75,-1.01 -1.2,-1.41 -0.58,-0.52 -0.81,-0.65 -1.4,-1.29l0.98 -1.39c0.08,-0.74 -0.28,-1.36 -1.02,-1.03 -0.45,0.2 -0.65,0.95 -1.12,1.29 -0.46,-0.41 -0.76,-0.83 -1.3,-1.26 -0.78,-0.61 -1.28,0.05 -1.11,0.96z"/>
    <path class="fil18" d="M177.83 129.11l0.94 0.94c-0.44,0.78 -2.06,2.64 -2.09,3.42 0.15,0.35 0.28,0.58 0.83,0.52 0.48,-0.06 0.52,-0.28 0.76,-0.59 0.49,-0.74 1.04,-1.57 1.56,-2.28 0.85,0.62 1.49,2.04 2.74,1.7 0.42,-0.89 0.04,-1.05 -0.5,-1.58 -0.46,-0.44 -0.81,-0.89 -1.32,-1.23l0.48 -0.89c0.35,-0.75 0.72,-0.7 0.47,-1.65 -1.33,-0.52 -1.32,0.34 -2.03,1.2 -0.59,-0.34 -1.06,-1.26 -1.71,-1.26 -0.32,0 -1.39,0.39 -0.13,1.69z"/>
    <path class="fil17" d="M201.78 203.54l1.03 3.81c1,-0.2 2.49,-0.33 3.24,-0.99 0.45,-0.39 0.47,-0.27 1.07,-0.45l-0.89 -3.39 -4.44 1.02z"/>
    <path class="fil18" d="M166.04 168.39c0.69,0.23 7.48,0.3 9.37,0.41 1.28,0.07 2.45,0.46 2,-1.17 -1.01,-0.51 -7.63,-0.51 -9.51,-0.54 -1.27,-0.02 -2.43,-0.25 -1.87,1.31z"/>
    <path class="fil19" d="M200.87 200.14l0.91 3.41 4.44 -1.02 -0.02 -0.12 -0.7 -2.9c-0.52,0.09 -0.78,0.25 -1.25,0.15 -0.56,-0.11 -0.29,-0.29 -1.06,-0.12 -0.72,0.15 -1.62,0.39 -2.33,0.61z"/>
    <path class="fil20" d="M168.99 210.21c-0.04,0.02 -0.09,0.04 -0.11,0.05l-0.75 0.29c-0.26,0.1 -0.46,0.19 -0.69,0.29 -0.54,0.22 -1.02,0.39 -1.52,0.61l-2.69 1.38c-0.07,-0.01 -0.16,-0.01 -0.22,-0.02l-0.32 -0.18c-0.12,0.33 0.04,0.09 -0.24,0.32 -0,0 -0.34,0.19 -0.37,0.2 -0.3,0.15 -0.46,0.23 -0.81,0.28l-0.3 0.28c0.79,0.08 1.87,-0.24 2.53,0.02l0 -0.7c0.52,-0.29 10.4,-2.72 11.2,-2.76l-0.02 -0.11 -0.74 -1.95 -4.94 2z"/>
    <path class="fil20" d="M245.98 189.78c0.16,0.86 0.35,2.07 0.75,2.73 0.8,-0.09 1.75,-0.4 2.44,-0.57 0.87,-0.22 1.66,-0.39 2.52,-0.59l-0.85 -2.69c-0.59,0.01 -4.36,0.93 -4.87,1.13z"/>
    <path class="fil19" d="M173.93 208.21l0.74 1.95 8.15 -1.93 -0.31 -1.37c-0.97,0.43 -1.56,0.97 -2.85,1.06 -0.57,0.04 -1.09,-0.04 -1.59,-0.24 -0.7,-0.29 -0.69,-0.55 -1.07,-0.73l-3.07 1.26z"/>
    <path class="fil13" d="M240.68 260.22c-2.78,0.85 -1.52,4.78 1.15,4.05 2.67,-0.73 1.52,-4.87 -1.15,-4.05z"/>
    <path class="fil13" d="M236.38 254.8c-2.76,0.6 -1.91,4.82 0.95,4.13 2.39,-0.58 1.85,-4.74 -0.95,-4.13z"/>
    <path class="fil3" d="M204.11 235.49l1.74 -0.89c-0.31,-0.39 -2.24,-1.63 -2.79,-2 -0.74,-0.5 -2.25,-1.74 -2.88,-1.96 0.34,1.3 0.62,2.6 0.93,3.91 0.18,0.78 0.26,1.21 1.12,1.3 0.61,0.06 1.63,-0.2 1.89,-0.36z"/>
    <path class="fil13" d="M55.21 276.93c-2.61,1.04 -1.04,4.77 1.48,3.8 2.43,-0.93 1.08,-4.82 -1.48,-3.8z"/>
    <path class="fil13" d="M50.28 281.63c-2.63,1.22 -0.84,4.72 1.58,3.76 2.21,-0.88 1.04,-4.97 -1.58,-3.76z"/>
    <path class="fil15" d="M183.52 223.12l-0 0.02 2.5 0 -1.04 -4.06 -2.63 0.06c0.07,0.38 0.46,1.29 0.63,1.89 0.2,0.7 0.4,1.37 0.54,2.09z"/>
    <path class="fil19" d="M250.84 188.65l0.85 2.69c0.22,0.94 0.77,2.18 0.85,3.12 0.71,0 0.63,-0.13 1.28,-0.14 -0.01,-0.6 -0.18,-0.98 -0.33,-1.51 -0.17,-0.58 -0.24,-1.01 -0.4,-1.58 -0.17,-0.61 -0.59,-2.51 -0.82,-3 -0.38,0.03 -0.4,0.05 -0.72,0.13l-0.7 0.3z"/>
   </g>
  </g>
  <path class="fil21" d="M150 -0c82.84,0 150,67.16 150,150 0,82.84 -67.16,150 -150,150 -82.84,0 -150,-67.16 -150,-150 0,-82.84 67.16,-150 150,-150z"/>
 </g>
</svg>
