<?xml version="1.0" encoding="UTF-8"?>
<!DOCTYPE svg PUBLIC "-//W3C//DTD SVG 1.1//EN" "http://www.w3.org/Graphics/SVG/1.1/DTD/svg11.dtd">
<!-- Creator: CorelDRAW 2017 -->
<svg xmlns="http://www.w3.org/2000/svg" xml:space="preserve" width="0.299992in" height="0.299992in" version="1.1" style="shape-rendering:geometricPrecision; text-rendering:geometricPrecision; image-rendering:optimizeQuality; fill-rule:evenodd; clip-rule:evenodd"
viewBox="0 0 299.99 299.99"
 xmlns:xlink="http://www.w3.org/1999/xlink">
 <defs>
  <style type="text/css">
   <![CDATA[
    .str0 {stroke:#E3AC7E;stroke-width:3;stroke-miterlimit:2.61313}
    .fil11 {fill:none}
    .fil0 {fill:#DA5B38}
    .fil3 {fill:#7E3A89}
    .fil4 {fill:#4B3676}
    .fil6 {fill:#26273C}
    .fil5 {fill:#2C5D6B}
    .fil2 {fill:#E3AC7E}
    .fil10 {fill:#EEB985}
    .fil8 {fill:#F4B983}
    .fil9 {fill:#FFEAC9}
    .fil7 {fill:white}
    .fil1 {fill:#26273C;fill-opacity:0.121569}
   ]]>
  </style>
   <clipPath id="id0">
    <path d="M150 -0c82.84,0 150,67.16 150,150 0,82.84 -67.16,150 -150,150 -82.84,0 -150,-67.16 -150,-150 0,-82.84 67.16,-150 150,-150z"/>
   </clipPath>
 </defs>
 <g id="Layer_x0020_1">
  <metadata id="CorelCorpID_0Corel-Layer"/>
  <path class="fil0" d="M150 -0c82.84,0 150,67.16 150,150 0,82.84 -67.16,150 -150,150 -82.84,0 -150,-67.16 -150,-150 0,-82.84 67.16,-150 150,-150z"/>
  <g style="clip-path:url(#id0)">
   <g id="_2456126095152">
    <polygon id="1" class="fil1" points="31.78,165.05 56.69,184.42 191.7,152.65 281.28,184.6 268.22,217.29 363.46,309.54 127.45,330.5 12.39,209.8 "/>
    <path class="fil2" d="M211.59 139.11c0.33,1.12 0.28,1.58 1.38,2.24l12.74 -0.05c0.61,0.52 0.37,-1.03 0.65,1.05l0.01 6.36c3.79,2.11 4.21,2.89 6.81,5.97 1.62,1.92 2.01,1.84 3.46,3.19 14.73,13.65 -9.85,11.17 -11.61,10.01l-2.25 -0.54c-4.4,-1.48 -7.68,-2.82 -11.58,-4.57 -2.19,-0.98 -3.46,-1.8 -5.28,-2.87 -1.74,-1.03 -3.56,-1.74 -5.14,-2.71l-5.87 -2.47 -3.76 -1.76c-3.97,-1.54 -6.75,-3.2 -11.73,-1.3 -1.33,0.51 -3.22,1.91 -4.06,2.94 -1.12,1.38 -1.37,3.78 -1.11,5.79 0.19,2.4 1.89,5.33 3.24,6.7 2.11,2.57 4.35,4.03 8.03,5.82 2.1,1.2 4.04,2.58 6.38,3.66 2.21,1.02 4.57,1.86 6.89,2.75 3.69,1.41 11.44,3.95 13.3,6.44 1.83,0.38 5.99,3.75 7.54,4.95 1.89,1.46 5.25,4.12 6.13,5.99l-28.97 0.05c1.69,1.38 0.98,-0 3.88,2.4 1.15,0.96 2.67,1.99 4,2.66 3.99,2.01 7.43,0.29 8.29,-3.26 1.28,0.28 11.38,3.63 13.16,-1.08 1.82,0.47 7.54,8.77 24.06,10.45 6.3,0.64 14.79,3.24 18.11,3.24l0.09 -39.27c-2.73,-1.12 -14.7,-13.41 -17.72,-16.3l-6.2 -5.23c-2.22,-1.87 -9.59,-9.9 -11.62,-10.84 -3.6,-1.67 -6.44,-0.35 -10.11,-0.07 -4.46,0.33 -8.32,-0.34 -11.14,-0.34z"/>
    <path class="fil2" d="M31.63 171.9l-0.06 39.63c1.39,-0.5 3.89,-0.86 5.67,-1.23 4.28,-0.9 7.23,-1.76 11.55,-2.26 7.71,-0.91 14.69,-2.71 20.79,-7.09 0.83,-0.6 3.02,-2.5 3.33,-3.46l2.07 -1.81c4.93,-5.49 8.56,-6.84 13.19,-10.49 1.64,-0.62 4.16,-2.28 6.3,-3.26 1.94,-0.9 4.65,-2 6.74,-2.47 1.63,-1.03 6.22,-2.42 8.37,-3.59 7.49,-4.05 17.89,-9.17 16.04,-18.78 -0.61,-2.75 -2.94,-4.67 -5.32,-5.51 -4.68,-1.66 -5.93,-0.15 -9.7,0.4 -0.83,0.83 -9.54,4.4 -11.26,5.2 -3.79,1.84 -8.83,5.33 -12.57,6.44 -0.08,0.06 -0.2,0.12 -0.26,0.15 -0.06,0.03 -0.19,0.11 -0.26,0.15l-5.29 2.19c-1.96,0.69 -4.12,1.31 -6.22,1.97l-2.1 0.22c-1.44,1.03 -9.86,0.37 -11.87,-0.43 -4.33,-1.71 -0.39,-6.93 0.92,-8.6 -0.34,-1.03 -1.52,-1.97 -2.37,-2.84 2.69,-3.23 6.43,-5.77 9.1,-8.46 2.72,-2.74 8.16,-6.96 8.98,-8.47 -2.6,-0.18 -6,-1.35 -8.93,-0.48 -3,0.89 -3.68,2.54 -5.6,4.36 -3.57,3.38 -6.58,6.32 -10.35,9.54 -5.61,4.79 -10.05,9.31 -15.41,14.42 -0.46,0.44 -0.68,0.63 -1.12,1.08 -0.2,0.2 -0.37,0.41 -0.53,0.57 -0.07,0.07 -0.28,0.3 -0.35,0.38 -1.17,1.17 -1.94,1.91 -3.48,2.56z"/>
    <path class="fil3" d="M74.75 168.06c2.1,-0.66 4.26,-1.28 6.22,-1.97l5.29 -2.19c0.07,-0.04 0.2,-0.11 0.26,-0.15 0.06,-0.03 0.17,-0.09 0.26,-0.15 -2.54,-3.24 3.76,-10.96 10.85,-7.98 1.45,0.61 1.42,0.41 1.72,1.54 1.72,-0.8 10.43,-4.37 11.26,-5.2 -2.8,-0.16 -7.51,-8.01 -8.54,-11.77 -4.86,-17.72 13.24,-33.56 31.11,-27.28 9.31,3.27 17.55,12.52 15.4,25.39 -1.78,10.64 -12.76,19.5 -22.94,18.78 1.85,9.61 -8.55,14.72 -16.04,18.78 -2.15,1.17 -6.74,2.56 -8.37,3.59 3.62,-0.09 5.96,1.66 8.38,2.81 2.64,-1.6 5.69,-5.18 8.31,-7.43 2.67,-2.29 5.39,-5.06 8.27,-7.56l49.58 -45.44c-3.57,-8.04 -4.25,-11.74 0.48,-19.46 -1.41,-2.24 -11.87,-11.83 -15.03,-15.45 -3.88,1.41 -5.22,2.85 -10.63,2.7 -5.5,-0.15 -6.47,-1.89 -10.16,-3.09l-20.86 18.91c-1.43,1.24 -2.52,2.56 -3.93,3.79l-12.63 11.32c-1.41,1.22 -2.51,2.54 -3.94,3.79 -2.79,2.44 -23.63,21.18 -24.63,22.7 1.85,3.24 2.91,5.69 2.75,10.1 -0.17,4.69 -1.69,6.16 -3.25,9.35 0.53,0.72 0.46,0.47 0.82,1.57z"/>
    <path class="fil4" d="M179.04 100.2c0.32,1.87 1.36,1.82 2.97,3.36 1.22,1.16 1.85,1.93 2.83,3.06 1.05,1.21 1.7,1.94 2.84,3.05 0.71,0.69 0.88,0.81 1.61,1.33 1.13,0.81 0.91,0.35 1.28,1.45l-11.36 10.49c-1.4,1.66 -4.22,3.37 -6,5.09 -2.89,2.78 -1.15,1.74 -5.71,5.33 -3.13,2.48 -4.28,4.32 -5.62,5.42 -2,1.63 -4.31,3.26 -5.94,5.12 -2.64,3.02 -2.85,2.7 -5.81,5.24 -1.89,1.62 -3.31,3.52 -5.45,5.23 -2.37,1.9 -3.68,2.95 -5.72,5.31 -1.47,1.7 -4.14,3.39 -5.98,5.11 -1.1,1.04 -1.44,1.84 -2.64,2.87l-5.99 5.07c-4.06,4.51 -5.19,4.35 -8.67,7.91 -3.5,3.59 -6.43,5.44 -8.5,8.04 -0.96,1.21 -1.81,1.66 -2.95,2.59 -2.23,1.83 -4.8,3.37 -4.8,5.35l3.76 0.16 93.61 -0.01 28.97 -0.05c-0.89,-1.87 -4.25,-4.53 -6.13,-5.99 -1.55,-1.2 -5.71,-4.57 -7.54,-4.95 -1.8,1.79 -3.45,4.75 -3.87,7.86l-89.19 0 24.32 -10.94c1.91,-0.33 7,-2.83 9.4,-3.9 2.47,-1.1 1.15,-0.42 2.57,-1.56l4.44 -1.63c0.02,3.69 2.03,4.93 4.54,2.69 0.43,-2.01 -0.04,-2.94 -0.31,-4.65l3.99 -1.7 7.46 -3.06c1.5,-0.61 2.19,-0.51 2.04,-1.76 -1.35,-1.37 -3.05,-4.3 -3.24,-6.7 -1.9,0.09 -23.14,9.76 -26.59,11.29l-25.88 11.29 8.1 -7.46c1.49,-1.29 2.43,-2.37 4.12,-3.97 1.38,-1.31 2.7,-2.31 4.11,-3.57l8.82 -8.4c0.03,-0.17 0.1,-0.21 0.19,-0.3 1.04,-0.04 0.87,-0.29 1.93,-1.43 0.7,-0.75 0.94,-0.96 1.7,-1.62 0.94,-0.82 2.9,-2.07 3.18,-3.09 0.12,-0.06 0.27,-0.11 0.37,-0.15 0.1,-0.04 0.24,-0.1 0.35,-0.15l0.61 -0.28c0.08,-0.04 0.17,-0.09 0.25,-0.13 0.43,-0.28 0.39,-0.3 0.71,-0.68 3.06,-3.54 5.48,-4.15 8.38,-7.8 0.96,-1.2 2.11,-2.11 3.41,-2.81 0.68,-1.93 2.91,-2.81 4.27,-4.28 0.88,-0.95 0.98,-1.24 1.96,-2.08 0.71,-0.61 1.44,-1.06 1.87,-1.81l0.99 -0.45c0.1,-0.05 0.19,-0.09 0.29,-0.15 0.39,-0.21 0.57,-0.33 0.9,-0.59 1.85,-1.5 2.54,-2.96 4.17,-4.24 1.12,-0.88 2.04,-1.55 3.1,-2.44 2.39,-1.98 1.56,-1.54 2.63,-3.1 0.84,-0.3 1.37,-1.24 2.01,-1.81 0.74,-0.67 1.21,-1.05 1.98,-1.7 1.38,-1.19 2.59,-2.34 4.02,-3.4 0.67,-0.56 2.05,-1.79 2.21,-2.64l0.26 -0.72c-2.33,-1.14 -11.24,-11.62 -14.2,-13.69 -1.33,0.27 -1.65,0.61 -2.72,1.07 -0.89,0.39 -1.82,0.69 -2.72,1.09z"/>
    <path class="fil4" d="M110.59 151.97c3.78,-0.56 5.02,-2.06 9.7,-0.4 2.38,0.85 4.71,2.76 5.32,5.51 10.18,0.72 21.17,-8.13 22.94,-18.78 2.15,-12.86 -6.09,-22.11 -15.4,-25.39 -17.87,-6.28 -35.98,9.56 -31.11,27.28 1.03,3.76 5.74,11.61 8.54,11.77z"/>
    <path class="fil4" d="M77.41 139.47c-0.82,1.51 -6.26,5.73 -8.98,8.47 -2.67,2.69 -6.41,5.23 -9.1,8.46 0.85,0.87 2.03,1.81 2.37,2.84 1.03,0.56 0.51,0.2 1.36,1.04l3.27 3.35c2.02,1.8 3.25,2.96 4.43,4.7l1.9 -0.06 2.1 -0.22c-0.36,-1.09 -0.3,-0.84 -0.82,-1.57 1.56,-3.19 3.09,-4.66 3.25,-9.35 0.15,-4.41 -0.91,-6.85 -2.75,-10.1 0.99,-1.52 21.84,-20.26 24.63,-22.7 1.43,-1.25 2.53,-2.57 3.94,-3.79l12.63 -11.32c1.41,-1.23 2.5,-2.55 3.93,-3.79l20.86 -18.91c3.69,1.2 4.65,2.95 10.16,3.09 5.41,0.15 6.74,-1.3 10.63,-2.7 3.17,3.63 13.62,13.21 15.03,15.45 -4.72,7.71 -4.05,11.42 -0.48,19.46l-49.58 45.44c-2.89,2.5 -5.61,5.27 -8.27,7.56 -2.62,2.25 -5.67,5.83 -8.31,7.43 -2.42,-1.15 -4.76,-2.9 -8.38,-2.81 -2.09,0.47 -4.8,1.57 -6.74,2.47 -2.13,0.98 -4.65,2.64 -6.3,3.26 0.69,1.71 4.03,4.28 5.37,5.71 1.76,1.87 3.19,3.9 5.89,5.74 0,-1.98 2.57,-3.52 4.8,-5.35 1.14,-0.94 1.99,-1.39 2.95,-2.59 2.07,-2.6 5,-4.45 8.5,-8.04 3.48,-3.57 4.61,-3.4 8.67,-7.91l5.99 -5.07c1.2,-1.02 1.54,-1.83 2.64,-2.87 1.83,-1.72 4.51,-3.41 5.98,-5.11 2.04,-2.35 3.35,-3.41 5.72,-5.31 2.14,-1.71 3.56,-3.61 5.45,-5.23 2.96,-2.54 3.17,-2.21 5.81,-5.24 1.63,-1.86 3.94,-3.49 5.94,-5.12 1.34,-1.09 2.48,-2.94 5.62,-5.42 4.56,-3.6 2.81,-2.56 5.71,-5.33 1.78,-1.71 4.6,-3.43 6,-5.09l11.36 -10.49c-0.37,-1.1 -0.15,-0.64 -1.28,-1.45 -0.72,-0.52 -0.89,-0.65 -1.61,-1.33 -1.15,-1.1 -1.8,-1.83 -2.84,-3.05 -0.98,-1.13 -1.61,-1.89 -2.83,-3.06 -1.61,-1.54 -2.65,-1.49 -2.97,-3.36l-28.1 -28.1c-0.96,1.37 -2.86,3.04 -4.27,4.19l-1.23 0.98c-3.89,3.18 -11.28,10.52 -16.12,14.81l-1.2 1.01c-4.05,3.46 -10.91,10.48 -14.98,13.75l-23.69 21.61c-2.69,2.15 -5.03,5.02 -7.43,6.94l-4.62 4.07z"/>
    <path class="fil3" d="M188.21 122.01c0.4,1.5 1.2,1.44 2.06,2.81 2.12,3.36 1.34,7.27 -1.36,9.61 -6.41,5.53 -11.37,-0.81 -12.79,-1.45 -0.43,0.75 -1.16,1.2 -1.87,1.81 -0.98,0.84 -1.09,1.13 -1.96,2.08 -1.36,1.46 -3.59,2.35 -4.27,4.28 1.3,3.37 0.35,9.36 -0.82,12.45 -2.56,6.79 -8.34,12.1 -15.67,14.19 -6.44,1.83 -9.04,0.38 -13.39,0.19 -1.41,1.25 -2.74,2.26 -4.11,3.57 -1.69,1.6 -2.63,2.68 -4.12,3.97l-8.1 7.46 25.88 -11.29c3.45,-1.53 24.69,-11.2 26.59,-11.29 -0.26,-2 -0.01,-4.41 1.11,-5.79 0.84,-1.04 2.73,-2.44 4.06,-2.94 4.98,-1.91 7.76,-0.24 11.73,1.3 1.03,-1.38 3.46,-1.66 5.71,-3.04 -0.02,-6.83 -1.36,-11.77 7.26,-18.48l-7.93 -16.35c-1.43,1.06 -2.64,2.21 -4.02,3.4 -0.77,0.66 -1.24,1.03 -1.98,1.7 -0.63,0.57 -1.17,1.52 -2.01,1.81z"/>
    <path class="fil5" d="M18.61 217.19c-0.69,-1.6 -0.19,-21.8 -0.22,-25.48l-20.83 -0.1 0 36.13 19.59 0.04c1.85,-0.19 1.52,-0.52 1.5,-2.53 -0.03,-2.69 -0.03,-5.37 -0.03,-8.06z"/>
    <path class="fil5" d="M281.39 217.21c0,12.72 -0.94,10.55 4.89,10.53 5.39,-0.02 10.78,0 16.17,0l0 -36.39c-4.78,1.14 -15.13,-0.34 -20.81,0.41 -0.05,3.88 0.57,23.62 -0.24,25.45z"/>
    <path class="fil6" d="M-2.45 191.61l20.83 0.1c0.04,-3.47 -0.34,-25.57 0.22,-26.81l0 -9.21 -21.06 0 0 35.92z"/>
    <path class="fil6" d="M281.39 165.06c0.78,1.91 0.2,22.65 0.24,26.71 5.68,-0.75 16.03,0.73 20.81,-0.41l0 -35.67 -21.05 0 0 9.37z"/>
    <path class="fil3" d="M143.37 182.69l-24.32 10.94 89.19 0c0.41,-3.11 2.07,-6.07 3.87,-7.86 -1.85,-2.49 -9.6,-5.03 -13.3,-6.44 -2.33,-0.89 -4.68,-1.74 -6.89,-2.75 -2.34,-1.08 -4.28,-2.46 -6.38,-3.66 0.31,3.98 -4.09,10.11 -5.79,11.82 -2.63,2.63 -6.56,5.12 -11.09,6.32 -5.01,1.33 -10.79,0.85 -15.37,-0.89 -3.55,-1.35 -8.74,-5.09 -9.92,-7.49z"/>
    <path class="fil7" d="M268.38 171.9l-0.09 39.27 -0.07 6.12 13.17 -0.08c0.81,-1.83 0.19,-21.57 0.24,-25.45 -0.04,-4.06 0.54,-24.8 -0.24,-26.71l-13.16 -0 0.15 6.85z"/>
    <path class="fil7" d="M18.38 191.7c0.04,3.69 -0.46,23.89 0.22,25.48l13.16 0.11 -0.19 -5.77 0.06 -39.63 0.15 -6.85 -13.17 -0.16c-0.56,1.24 -0.19,23.34 -0.22,26.81z"/>
    <path class="fil4" d="M196.22 115.09l7.93 16.35c-8.62,6.71 -7.28,11.65 -7.26,18.48 -2.26,1.38 -4.68,1.66 -5.71,3.04l3.76 1.76c1.18,-1.76 7.17,-3.78 9.68,-4.96 2.48,-1.17 7.19,-3.4 9.53,-4.17 -0.22,-1.29 -1.17,-2.49 -1.65,-3.67 2.03,-0.57 4.37,-0.38 6.5,-0.2 0.85,2.41 2.44,4.02 2.76,6.81l-7.77 3.46c-1.57,0.57 -1.35,0.02 -2.52,0.81 1.31,0.13 3.43,2.48 5.1,3.41 2.17,1.2 3.85,1.48 6.08,2.35l0.15 8.79 2.25 0.54c1.08,-0.16 0.52,0.22 0.91,-0.67l-0.24 -25.91 -12.74 0.05c-1.1,-0.67 -1.06,-1.12 -1.38,-2.24l-6.41 -13.43c-0.54,-1.22 -5.48,-12.33 -6.76,-13.23 -0.16,0.85 -1.54,2.08 -2.21,2.64z"/>
    <path class="fil4" d="M168.01 171.92c2.4,1 2.6,10.31 -3.67,11.41 -0.01,0.44 0.96,3.13 -3.26,2.24 -0.81,-0.17 -0.3,-0.16 -0.69,-1.09l-0.18 -0.56c-0.6,-1.11 -1.52,-0.74 -2.72,-1.74 -1.39,-1.17 -2.19,-2.81 -2.15,-4.95 -1.43,1.15 -0.11,0.46 -2.57,1.56 -2.4,1.07 -7.49,3.57 -9.4,3.9 1.19,2.4 6.37,6.14 9.92,7.49 4.58,1.74 10.36,2.22 15.37,0.89 4.54,-1.2 8.46,-3.69 11.09,-6.32 1.7,-1.71 6.09,-7.85 5.79,-11.82 -3.68,-1.8 -5.92,-3.25 -8.03,-5.82 0.15,1.25 -0.54,1.15 -2.04,1.76l-7.46 3.06z"/>
    <path class="fil4" d="M153.94 153.15c1.15,0.48 0.42,-0.09 0.67,1.09 0.21,0.99 -0.49,2.3 -1.22,3.07 -1.86,1.96 -1.72,0.56 -0.98,3.49l-3.34 1.19c-0.08,-0.11 -0.17,-0.32 -0.19,-0.26l-1.74 -2.45c-0.08,0.09 -0.15,0.13 -0.19,0.3l-8.82 8.4c4.35,0.19 6.95,1.64 13.39,-0.19 7.33,-2.09 13.12,-7.39 15.67,-14.19 1.17,-3.09 2.12,-9.08 0.82,-12.45 -1.3,0.7 -2.45,1.6 -3.41,2.81 -2.9,3.65 -5.32,4.26 -8.38,7.8 -0.32,0.37 -0.28,0.4 -0.71,0.68 -0.07,0.05 -0.17,0.09 -0.25,0.13l-0.61 0.28c-0.11,0.05 -0.25,0.11 -0.35,0.15 -0.1,0.04 -0.25,0.09 -0.37,0.15z"/>
    <path class="fil3" d="M111.37 124.26l1.43 1.58c-2.39,5.09 1.57,9.48 5.89,10.68 3.33,0.93 5.72,-0.09 8.95,-0.13 3.25,-0.04 5.81,1.29 5.78,4.16 -2.16,3.64 -4.39,0.87 -6.17,-0.62l-2.96 2.81c1.49,2.78 5.86,5.38 10.11,3.09l1.81 1.21c1.39,-1.01 1.57,-1.24 2.52,-2.52l-1.27 -1.41c1.1,-3.51 1.15,-5.15 -0.99,-7.78 -1.41,-1.73 -3.93,-3.33 -6.93,-3.5 -3.14,-0.18 -7.08,1 -9.75,0.02 -2.69,-0.99 -4.68,-3.57 -1.17,-5.44 2.19,0.15 2.07,0.91 3.44,1.75 0.72,-0.5 0.78,-0.66 1.43,-1.3l1.13 -1.11c0.51,-0.61 0.06,0.11 0.48,-0.69 -2.42,-2.84 -4.92,-3.83 -9.49,-2.1 -0.99,-0.65 -0.74,-0.73 -2.02,-1.24l-2.22 2.54z"/>
    <path class="fil2" d="M72.91 197.48c2.69,0.54 1.48,2.53 6.59,2.55 3.51,0.02 4.9,-0.88 7.52,-1.47 2.35,9.66 13.82,-0.59 13.97,-0.66 1.11,-0.54 1.23,-0.35 2.19,-1.13l-3.76 -0.16c-2.71,-1.83 -4.14,-3.87 -5.89,-5.74 -1.34,-1.43 -4.68,-4 -5.37,-5.71 -4.63,3.65 -8.26,5 -13.19,10.49l-2.07 1.81z"/>
    <path class="fil8 str0" d="M225.04 167.88c1.76,1.15 26.34,3.64 11.61,-10.01 -1.45,-1.35 -1.85,-1.27 -3.46,-3.19 -2.6,-3.08 -3.02,-3.86 -6.81,-5.97l-0.01 -6.36c-0.28,-2.08 -0.04,-0.53 -0.65,-1.05l0.24 25.91c-0.39,0.89 0.17,0.51 -0.91,0.67z"/>
    <path class="fil4" d="M153.33 99.07c-10.12,3.7 -4.58,17.33 5.05,14.39 10.04,-3.06 4.92,-18.04 -5.05,-14.39z"/>
    <path class="fil4" d="M194.93 154.72l5.87 2.47c2.63,-0.29 7.91,-3.37 10.66,-4.39 1.17,-0.8 0.95,-0.25 2.52,-0.81l7.77 -3.46c-0.31,-2.78 -1.91,-4.4 -2.76,-6.81 -2.12,-0.18 -4.46,-0.37 -6.5,0.2 0.48,1.18 1.43,2.38 1.65,3.67 -2.35,0.76 -7.05,3 -9.53,4.17 -2.51,1.18 -8.5,3.2 -9.68,4.96z"/>
    <path class="fil3" d="M200.79 157.2c1.58,0.97 3.4,1.68 5.14,2.71 1.81,1.07 3.08,1.89 5.28,2.87 3.91,1.74 7.19,3.08 11.58,4.57l-0.15 -8.79c-2.23,-0.86 -3.91,-1.14 -6.08,-2.35 -1.67,-0.93 -3.79,-3.27 -5.1,-3.41 -2.75,1.02 -8.03,4.1 -10.66,4.39z"/>
    <path class="fil9" d="M115.41 153.28c-0.7,0.17 -4.15,2.02 -4.74,2.36 -6.26,3.6 -3.36,12.23 3.8,11.32 1.92,-0.24 3.45,-1.3 5.02,-2.14 4.54,-2.42 3.22,-3.37 0.15,-8.66 -0.97,-1.67 -1.62,-3.5 -4.22,-2.88z"/>
    <path class="fil9" d="M182.67 153.53c-1.73,0.78 -1.35,1.06 -3.11,4.01 -0.79,1.32 -2.34,3.37 -1.7,5.13 0.55,1.53 10.73,8.23 14.17,1.03 3.58,-7.5 -7.63,-10.95 -9.35,-10.17z"/>
    <path class="fil4" d="M176.13 132.98c1.42,0.64 6.38,6.98 12.79,1.45 2.7,-2.33 3.48,-6.25 1.36,-9.61 -0.87,-1.38 -1.67,-1.31 -2.06,-2.81 -1.07,1.56 -0.25,1.12 -2.63,3.1 -1.07,0.89 -1.98,1.56 -3.1,2.44 -1.63,1.28 -2.32,2.75 -4.17,4.24 -0.33,0.26 -0.5,0.38 -0.9,0.59 -0.09,0.05 -0.19,0.09 -0.29,0.15l-0.99 0.45z"/>
    <path class="fil3" d="M155.34 177.22c-0.04,2.14 0.76,3.78 2.15,4.95 1.19,1 2.12,0.63 2.72,1.74l0.18 0.56c0.39,0.94 -0.12,0.92 0.69,1.09 4.22,0.89 3.24,-1.79 3.26,-2.24 6.27,-1.11 6.07,-10.41 3.67,-11.41l-3.99 1.7c0.27,1.71 0.74,2.64 0.31,4.65 -2.51,2.24 -4.52,1.01 -4.54,-2.69l-4.44 1.63z"/>
    <path class="fil10 str0" d="M72.65 168.28l-1.9 0.06c-1.17,-1.74 -2.41,-2.91 -4.43,-4.7l-3.27 -3.35c-0.85,-0.84 -0.33,-0.48 -1.36,-1.04 -1.31,1.68 -5.24,6.89 -0.92,8.6 2.01,0.8 10.43,1.46 11.87,0.43z"/>
    <path class="fil4" d="M184.48 98.04c2.96,2.07 11.87,12.55 14.2,13.69 -1.45,-1.96 -6.2,-12.82 -7.89,-16.21 -1.45,0.03 -5.75,1.97 -6.31,2.52z"/>
    <path class="fil4" d="M86.77 163.6c3.74,-1.11 8.78,-4.59 12.57,-6.44 -0.3,-1.13 -0.26,-0.93 -1.72,-1.54 -7.09,-2.98 -13.39,4.74 -10.85,7.98z"/>
    <path class="fil3" d="M147.14 159.29l1.74 2.45c0.03,-0.06 0.11,0.16 0.19,0.26l3.34 -1.19c-0.74,-2.93 -0.88,-1.53 0.98,-3.49 0.73,-0.77 1.43,-2.08 1.22,-3.07 -0.25,-1.19 0.48,-0.62 -0.67,-1.09 -0.28,1.02 -2.23,2.28 -3.18,3.09 -0.76,0.66 -1,0.87 -1.7,1.62 -1.06,1.14 -0.88,1.39 -1.93,1.43z"/>
   </g>
  </g>
  <path class="fil11" d="M150 -0c82.84,0 150,67.16 150,150 0,82.84 -67.16,150 -150,150 -82.84,0 -150,-67.16 -150,-150 0,-82.84 67.16,-150 150,-150z"/>
 </g>
</svg>
