<?xml version="1.0" encoding="UTF-8"?>
<!DOCTYPE svg PUBLIC "-//W3C//DTD SVG 1.1//EN" "http://www.w3.org/Graphics/SVG/1.1/DTD/svg11.dtd">
<!-- Creator: CorelDRAW 2017 -->
<svg xmlns="http://www.w3.org/2000/svg" xml:space="preserve" width="0.299992in" height="0.299992in" version="1.1" style="shape-rendering:geometricPrecision; text-rendering:geometricPrecision; image-rendering:optimizeQuality; fill-rule:evenodd; clip-rule:evenodd"
viewBox="0 0 299.99 299.99"
 xmlns:xlink="http://www.w3.org/1999/xlink">
 <defs>
  <style type="text/css">
   <![CDATA[
    .str0 {stroke:#E3AC7E;stroke-width:3;stroke-miterlimit:2.61313}
    .fil10 {fill:none}
    .fil3 {fill:#F58634}
    .fil4 {fill:#7E3A89}
    .fil7 {fill:#4B3676}
    .fil8 {fill:#D2D3D5}
    .fil5 {fill:#E3AC7E}
    .fil9 {fill:#E4E3E3}
    .fil2 {fill:#F8BB85}
    .fil6 {fill:#FEFEFE}
    .fil0 {fill:#FF4C3E}
    .fil1 {fill:#26273C;fill-opacity:0.211765}
   ]]>
  </style>
   <clipPath id="id0">
    <path d="M150 -0c82.84,0 150,67.16 150,150 0,82.84 -67.16,150 -150,150 -82.84,0 -150,-67.16 -150,-150 0,-82.84 67.16,-150 150,-150z"/>
   </clipPath>
 </defs>
 <g id="Layer_x0020_1">
  <metadata id="CorelCorpID_0Corel-Layer"/>
  <path class="fil0" d="M150 -0c82.84,0 150,67.16 150,150 0,82.84 -67.16,150 -150,150 -82.84,0 -150,-67.16 -150,-150 0,-82.84 67.16,-150 150,-150z"/>
  <g style="clip-path:url(#id0)">
   <g id="_2490708586176">
    <polygon id="1" class="fil1" points="282.74,147.21 338.3,-39.43 97.93,-22.18 7.99,198.45 168.15,151.56 "/>
    <path class="fil2" d="M74.01 166.28c3.67,1.3 7.37,-0.25 17,7 0.59,0.45 1.22,0.89 1.65,1.28 3.15,2.91 4.63,3.94 7.49,7.43 8.01,9.8 15.15,24.14 14.69,39.43 21.61,-2.41 26.22,-0.2 45.28,-9.93 7.28,-3.72 15.88,-8.93 23.57,-12.97l17.81 -9.74c2,-1.19 13.57,-7.28 14.44,-8.43 0.83,-1.11 0.7,-2.27 1.51,-3.45 0.44,2.17 -0.04,3.33 -0.81,5.24 1.23,1.65 1.72,1.22 3.94,1.31 -1.24,1.42 -2.03,1.83 -4.47,1.44 1.01,3 2.06,2.43 3.01,4.07 -4.43,0.6 -0.04,-2.53 -7.48,2.63 -1.28,0.89 -2.2,1.49 -3.53,2.31 -1.94,1.2 -1.58,1.41 -0.71,2.89 2.56,0.3 6.13,-2.41 9.06,-2.68 1.05,0.26 0.71,0.29 2.85,-1.03 5.39,-3.32 5.33,-1.82 7.32,-14.36 0.29,-1.8 0.92,-6.24 0.74,-7.91l-0.09 -4.85c-0.47,-2.63 -1.08,-3.51 -2.61,-4.65 -1.21,-0.9 -2.79,-1.98 -3.91,-2.8 -1.56,-0.31 -3.15,-1.6 -4.94,-2.54 -1.26,-0.66 -3.23,-1.73 -4.43,-2.34 -13.73,-7.04 -7.02,-2.51 -10.69,-10.73 -1.5,-3.35 -4.19,-6.09 -7.02,-7.88 -2.08,-1.31 -2.81,-1.35 -5.04,-2.34 -0.69,-1.18 -1.18,-4.92 -2.22,-6.89 -2.57,-4.89 -8.61,-10.06 -14.22,-11.78 8.86,-0.64 30.21,2.41 23.43,-10.37 -3.68,-6.94 -9.92,-6.74 -16.7,-6.94 -1.89,-0.06 -3.93,0 -5.83,0.01 -2.35,0.01 -3.52,-0.31 -5.49,-0.34 -1.93,-0.02 -3.91,0 -5.84,0.02 -3.68,0.02 -6.89,-1.15 -10.34,0.66 -5.83,3.04 -2.24,3.06 -8.44,3.21 -4.39,0.11 -11.2,1.3 -15.21,2.27 -2.52,0.61 -6.6,1.85 -8.61,3.04 -2.22,1.32 -3.96,4.33 -5.54,6.44 -1.68,2.24 -3.12,4.62 -4.69,6.96 -0.84,1.26 -1.44,2.28 -2.26,3.56l-19.09 30.74c-2.84,4.52 -2.75,3.69 -6.81,7.75 -5.21,5.21 -2.89,2.37 -6.8,5.26z"/>
    <path class="fil3" d="M43.87 275.67c1.96,-0.08 1.79,-0.55 4.97,-2.26l36.43 -21.18c7.63,-4.51 8.83,-4.26 13.03,-11.83 1.28,-5.74 2.43,-8.46 1.67,-15.08 -1.25,-18.87 -16.01,-42.1 -32.54,-50.11 -3.23,-1.56 -5.25,-1.89 -8.89,-2.9 -7.75,-0.34 -9.82,1.37 -15.84,5 -10.83,6.53 -22.87,13.07 -33.78,19.62 -2.41,1.45 -4.57,2.69 -7.02,3.98l0 74.76 41.96 0z"/>
    <path class="fil4" d="M213.56 109.32c0.69,0.94 6,6.61 6.82,7.04l-0 -1.33c1.85,-1.28 3.24,-2.83 6.38,-2.35 2.22,0.34 5.03,1.56 4.98,4.21 -0.62,0.47 -1.58,1.17 -2.64,1.55l-3.02 -1.57c0.56,-0.76 1.11,-0.82 1.56,-1.8 -5.78,0 0.43,4.02 -2.7,6.16 0.31,0.89 0.7,1.71 1.88,1.83l6.26 -3.7 -1.61 -1.22c2.52,-1.8 2.44,-1.69 5.09,-0.09 1.31,0.8 3.78,1.99 4.81,2.93 -2.25,2.54 -3.44,0.89 -4.54,0.45l-7.64 4.4 0.86 1.35c4.35,-1.44 11.66,-5.97 13.48,-5.13 0.69,0.32 3.43,1.96 4.01,2.49l-11.07 8.91 -3.41 -2.17 1.85 -1.22c-1.83,-2.06 -1.52,0.89 -5.01,-0.18 -0.54,0 -0.31,-0.09 -0.61,0.37 1.13,2.58 0.37,2.48 -1.59,3.58 -1.19,0.67 -2.25,1.42 -3.43,2.07 -2.09,1.16 -4.89,2.92 -7.16,3.85 4.03,2.79 6.42,1.54 5.91,8.53 1.14,-0.07 9.45,1.8 17.07,1.66 5.8,-0.1 11.5,-0.98 16.74,-2.51 7.57,-2.22 16.08,-6.65 19.69,-13.64 0.53,-1.03 0.85,-2.4 1.47,-3.31 0.39,2.63 0.07,5.95 -0.07,8.56 0.85,-1.74 0.3,-5.24 0.32,-7.38 0.01,-1.3 0.03,-2.59 0.01,-3.89 -0.01,-0.68 -0.04,-1.22 -0.09,-1.89l0.11 -1.69c-1.18,-2.1 -0.84,-3.45 -3.83,-7.14 -10.47,-12.9 -36.31,-15.37 -52.74,-10.89 -1.82,0.5 -6.83,2.05 -8.17,3.17z"/>
    <path class="fil5" d="M220.79 158.51c0.35,-0.8 -0.52,-0.71 0.84,-0.61l-0.56 -0.66 1.96 -8.97c0.55,-7.51 -4.97,-8.23 -11.07,-10.2l0.5 -4.65c2.17,-0.13 4.68,2.22 9.56,1.15 3.94,-0.86 7.11,-4.7 7.89,-4.7 -0.99,-5.65 -1.93,-3.63 -3.09,-6.81 -0.69,-0.07 -12.35,-12.48 -13.27,-13.74 -2.92,-2.02 -6.05,-3.02 -8.83,-4.42l-15.43 -7.23c1.5,1.41 4.3,2.08 6.35,5.96 6.78,12.78 -14.57,9.73 -23.43,10.37 5.6,1.73 11.65,6.89 14.22,11.78 1.04,1.97 1.53,5.71 2.22,6.89 2.23,0.99 2.96,1.03 5.04,2.34 2.83,1.79 5.52,4.52 7.02,7.88 3.67,8.22 -3.04,3.7 10.69,10.73 1.2,0.61 3.17,1.69 4.43,2.34 1.8,0.94 3.38,2.24 4.94,2.54z"/>
    <path class="fil5 str0" d="M71.17 168.22c6.78,-0.98 17.49,6.97 21.89,11.77 9.36,10.2 17.21,23.39 17.59,39.73 -0.07,4.43 -0.64,9.14 -2.81,12.57 1.69,-0.63 3,-1.7 4.88,-2.46 1.91,-0.76 3.33,-1.13 5.5,-1.63 3.85,-0.88 8.59,-1.52 12.52,-2.05 18.55,-2.5 29.38,-6.32 45.72,-15.45 2.5,-1.39 14.02,-7.98 15.76,-9.49 2.18,1.46 3.29,1.15 6.48,0.33 3.47,-0.89 8.77,-2.96 12.07,-4.43 1.35,-0.6 4.92,-1.76 5.72,-3.02 -2.93,0.27 -6.5,2.98 -9.06,2.68 -0.87,-1.48 -1.23,-1.69 0.71,-2.89 1.33,-0.83 2.25,-1.43 3.53,-2.31 7.44,-5.15 3.04,-2.03 7.48,-2.63 -0.96,-1.64 -2,-1.07 -3.01,-4.07 2.44,0.39 3.23,-0.02 4.47,-1.44 -2.23,-0.09 -2.72,0.35 -3.94,-1.31 0.77,-1.91 1.25,-3.07 0.81,-5.24 -0.81,1.18 -0.68,2.33 -1.51,3.45 -0.87,1.16 -12.43,7.24 -14.44,8.43l-17.81 9.74c-7.69,4.04 -16.29,9.25 -23.57,12.97 -19.06,9.72 -23.67,7.52 -45.28,9.93 0.46,-15.29 -6.69,-29.63 -14.69,-39.43 -2.85,-3.49 -4.33,-4.52 -7.49,-7.43 -0.43,-0.39 -1.05,-0.83 -1.65,-1.28 -9.63,-7.25 -13.33,-5.69 -17,-7 -0.77,0.2 -0.89,0.29 -1.49,0.67 -0.07,0.04 -0.44,0.28 -0.59,0.42 -0.66,0.58 -0.22,0.01 -0.75,0.85z"/>
    <path class="fil6" d="M58.55 172.3c3.63,1.02 5.66,1.34 8.89,2.9 16.53,8.01 31.29,31.23 32.54,50.11 0.99,0.39 1.58,-0.28 2.71,-0.97 0.9,-0.55 1.67,-0.98 2.65,-1.56 1.71,-1 3.63,-2.11 5.32,-3.06 -0.39,-16.34 -8.23,-29.53 -17.59,-39.73 -4.4,-4.8 -15.11,-12.75 -21.89,-11.77 -4.21,-1.63 -10.26,2.7 -12.62,4.08z"/>
    <path class="fil6" d="M277.94 139.04c0.02,2.83 -1.61,5.46 -2.89,7.17 -9.23,12.3 -30.56,15.2 -45.25,13.24 -2.67,-0.36 -5.86,-1.35 -8.17,-1.55 -1.35,-0.1 -0.48,-0.19 -0.84,0.61 1.12,0.82 2.69,1.9 3.91,2.8 1.53,1.14 2.14,2.02 2.61,4.65 13.84,1.19 24.69,1.14 37.09,-3.54 7.77,-2.94 16.82,-8.3 20.18,-16.07 0.57,-1.31 0.89,-3.08 1.49,-4.19 0,-5.29 -0.13,-7.3 -1.93,-10.84 -1.18,-2.31 -3.82,-5.66 -5.83,-7.14l-0.11 1.69c0.04,0.67 0.08,1.2 0.09,1.89 0.02,1.3 0,2.59 -0.01,3.89 -0.02,2.14 0.53,5.64 -0.32,7.38z"/>
    <path class="fil7" d="M223.04 148.28l-1.96 8.97 0.56 0.66c2.31,0.2 5.5,1.19 8.17,1.55 14.7,1.96 36.02,-0.94 45.25,-13.24 1.28,-1.71 2.91,-4.33 2.89,-7.17 0.14,-2.61 0.46,-5.93 0.07,-8.56 -0.62,0.91 -0.94,2.28 -1.47,3.31 -3.61,7 -12.12,11.43 -19.69,13.64 -5.24,1.53 -10.94,2.41 -16.74,2.51 -7.63,0.13 -15.94,-1.73 -17.07,-1.66z"/>
    <path class="fil8" d="M227.3 165.96l0.09 4.85 10.15 0.95c2.24,0.2 3.16,-0.3 5.15,-0.32 14.11,-0.12 34.96,-6.44 41.55,-19.62 1.7,-3.4 1.83,-4.8 1.83,-9.67 -0.6,1.1 -0.92,2.87 -1.49,4.19 -3.36,7.77 -12.41,13.13 -20.18,16.07 -12.4,4.68 -23.25,4.73 -37.09,3.54z"/>
    <path class="fil9" d="M99.98 225.31c0.76,6.62 -0.4,9.34 -1.67,15.08 1.81,-0.87 4,-2.11 5.56,-3.23 1.52,-1.08 3.28,-2.98 3.98,-4.86 2.17,-3.44 2.73,-8.14 2.81,-12.57 -1.69,0.94 -3.61,2.06 -5.32,3.06 -0.98,0.57 -1.75,1.01 -2.65,1.56 -1.13,0.69 -1.72,1.35 -2.71,0.97z"/>
    <path class="fil6" d="M237.16 133.96c2.46,1.06 2.54,2.42 4.92,0.98 1.36,-0.83 3.76,-2.85 5.03,-2.2 -0.57,1.32 -3.85,2.22 -5.4,3.83 3.28,1.63 1.9,2.65 7.61,-0.86 1.94,-1.19 0.69,-1.59 1.14,-2.27 2.34,0.62 6.43,-1.39 5.95,-3.23 -0.29,-1.11 -5.39,-4.02 -6.19,-3.94 -0.61,0.06 -5.56,3.07 -6.61,3.71 -1.34,0.8 -5.49,2.9 -6.44,3.99z"/>
    <path class="fil6" d="M230.06 127.18l-0.15 2.7c3.49,1.07 3.18,-1.88 5.01,0.18l-1.85 1.22 3.41 2.17 11.07 -8.91c-0.58,-0.53 -3.32,-2.17 -4.01,-2.49 -1.82,-0.84 -9.13,3.69 -13.48,5.13z"/>
    <path class="fil6" d="M256.35 132.59l1.73 1.13 -10.26 6.03 1.5 1.14c2.75,1.54 2.01,1.01 9.31,-3.35 1.17,-0.7 2.55,-1.94 3.86,-1.42 0.69,0.27 1.13,1.3 3.02,-0.11l0.89 -0.87c-5.45,-2.18 -6.84,-5.96 -10.04,-2.56z"/>
    <path class="fil4" d="M217.13 139.74c2.26,-0.94 5.06,-2.7 7.16,-3.85 1.18,-0.65 2.24,-1.4 3.43,-2.07 1.96,-1.09 2.73,-1 1.59,-3.58 -1.96,1.34 -2.88,3.37 -7.28,4.33 -4.88,1.07 -7.39,-1.28 -9.56,-1.15l-0.5 4.65 5.16 1.67z"/>
    <path class="fil6" d="M226.83 123.06c0.47,1.29 1.35,2.18 2.38,2.77l7.64 -4.4c1.09,0.44 2.28,2.09 4.54,-0.45 -1.04,-0.94 -3.5,-2.13 -4.81,-2.93 -2.64,-1.6 -2.57,-1.71 -5.09,0.09l1.61 1.22 -6.26 3.7z"/>
    <path class="fil6" d="M220.38 116.37c0.54,1.39 1.15,1.47 2.11,2.48 0.86,0.9 1.31,1.87 2.46,2.38 3.13,-2.14 -3.09,-6.16 2.7,-6.16 -0.46,0.97 -1,1.04 -1.56,1.8l3.02 1.57c1.06,-0.38 2.02,-1.07 2.64,-1.55 0.06,-2.65 -2.75,-3.87 -4.98,-4.21 -3.15,-0.48 -4.54,1.07 -6.38,2.35l0 1.33z"/>
   </g>
  </g>
  <path class="fil10" d="M150 -0c82.84,0 150,67.16 150,150 0,82.84 -67.16,150 -150,150 -82.84,0 -150,-67.16 -150,-150 0,-82.84 67.16,-150 150,-150z"/>
 </g>
</svg>
